<svg width="1536" height="490" viewBox="0 0 1536 490" fill="none" xmlns="http://www.w3.org/2000/svg">
<rect y="84.665" width="1536" height="405.335" rx="20" fill="#152331"/>
<path fill-rule="evenodd" clip-rule="evenodd" d="M1536 69.1031C1536 69.376 1536 69.6493 1535.99 69.923L1536 69.9232V125.138L1535.57 126.998H0V85.6685C4.28855 60.5659 23.5721 40.7964 47.922 37.4937C316.945 21.8676 461.855 26.5278 570.766 30.0304C637.73 32.1839 691.084 33.8998 751.311 30.1936C776.21 28.6614 805.562 26.7766 837.847 24.7035C1013.38 13.4317 1275.61 -3.40642 1379.93 0.604747C1431.66 2.59387 1470.88 7.60714 1500.26 13.5055C1521.13 22.0755 1535.86 43.4773 1536 68.4007V69.1031Z" fill="#152331"/>
</svg>
