<svg width="1037" height="978" viewBox="0 0 1037 978" fill="none" xmlns="http://www.w3.org/2000/svg">
<path d="M43.2438 331.999C-6.3064 270.791 -13.2743 215.861 22.3398 167.209C57.954 118.557 100.923 79.7136 151.248 50.6793C201.572 21.6449 255.768 13.7978 313.834 27.1379C371.901 40.478 421.451 49.1099 462.485 53.0334C503.518 56.957 551.133 45.5786 605.329 18.8984C659.524 -7.7818 708.3 -6.21234 751.656 23.6067C795.013 53.4258 848.047 80.8907 910.759 106.001C973.471 131.112 1011.41 174.664 1024.57 236.656C1037.73 298.648 1040.44 360.248 1032.7 421.456C1024.96 482.663 1016.83 544.263 1008.31 606.255C999.794 668.248 961.083 707.483 892.178 723.962C823.272 740.441 771.786 769.083 737.72 809.888C703.655 850.693 661.46 884.043 611.135 909.939C560.811 935.834 505.067 956.237 443.903 971.146C382.74 986.056 325.448 976.639 272.026 942.897C218.605 909.154 186.088 858.54 174.474 791.055C162.861 723.57 146.99 668.64 126.86 626.266C106.73 583.891 100.149 539.555 107.117 493.257C114.085 446.959 92.794 393.206 43.2438 331.999Z" fill="#0D1B29"/>
</svg>
