<svg width="98" height="85" viewBox="0 0 98 85" fill="none" xmlns="http://www.w3.org/2000/svg">
<g clip-path="url(#clip0_680_96)">
<path opacity="0.986" fill-rule="evenodd" clip-rule="evenodd" d="M46.0145 -0.0761719C46.576 -0.0761719 47.1373 -0.0761719 47.6988 -0.0761719C53.942 1.27049 58.8676 4.58284 62.4754 9.86088C66.79 16.0267 70.7201 22.4476 74.266 29.1235C75.0333 30.832 75.2886 32.6155 75.0316 34.4742C74.6084 35.1265 73.9959 35.4323 73.1941 35.3915C71.901 35.1663 70.7526 34.6312 69.7488 33.7862C66.6413 31.2446 63.5788 28.6457 60.5613 25.9895C53.7822 20.6238 46.0494 17.6937 37.3629 17.199C30.7069 17.7495 24.5053 19.7116 18.7582 23.0848C18.6051 23.1868 18.452 23.1868 18.2988 23.0848C19.3258 19.8546 20.6784 16.7716 22.3566 13.8357C22.8744 13.1845 23.4103 12.5476 23.9645 11.9247C27.6535 8.83426 31.5836 6.08246 35.7551 3.66933C38.9744 1.80451 42.3943 0.556011 46.0145 -0.0761719Z" fill="#FFDF01"/>
<path opacity="0.984" fill-rule="evenodd" clip-rule="evenodd" d="M61.3273 84.9238C60.5107 84.9238 59.694 84.9238 58.8773 84.9238C56.0262 84.4587 53.3209 83.5159 50.7617 82.0955C47.7326 80.3807 44.9252 78.3678 42.3398 76.0569C46.5834 75.1966 50.6156 73.7443 54.4367 71.6998C59.7636 68.3689 64.1277 64.063 67.5289 58.7817C68.8684 56.4631 70.2466 54.17 71.6633 51.9022C72.4624 50.7961 73.5089 50.0573 74.8023 49.6855C75.259 49.6093 75.7183 49.5838 76.1805 49.609C76.6028 53.3305 76.5772 57.0505 76.1039 60.7691C75.3839 64.1541 74.5673 67.5174 73.6539 70.859C72.7829 74.7378 71.0986 78.2031 68.6008 81.2547C66.5489 83.2345 64.1243 84.4575 61.3273 84.9238Z" fill="#FFDF01"/>
<path opacity="0.954" fill-rule="evenodd" clip-rule="evenodd" d="M39.5828 75.751C41.6581 78.4598 44.1081 80.7785 46.9328 82.7069C41.9533 83.0457 37.3086 81.9755 32.9984 79.4965C31.2882 78.4646 29.6038 77.3944 27.9453 76.286C30.1891 76.3539 32.4349 76.3539 34.6828 76.286C36.3505 76.2166 37.9839 76.0382 39.5828 75.751Z" fill="#FFDF01"/>
<path fill-rule="evenodd" clip-rule="evenodd" d="M42 47H32C32 49.7614 34.2386 52 37 52C39.7614 52 42 49.7614 42 47ZM44 47H49V70H21V47H30C30 50.866 33.134 54 37 54C37.8091 54 38.5862 53.8627 39.3092 53.6102C39.358 53.7319 39.4317 53.846 39.5303 53.9446L42.7928 57.2071C43.1833 57.5976 43.8165 57.5976 44.207 57.2071C44.5976 56.8166 44.5976 56.1834 44.207 55.7929L41.0933 52.6791C42.8541 51.4078 44 49.3377 44 47Z" fill="#FFDF01"/>
<path opacity="0.992" fill-rule="evenodd" clip-rule="evenodd" d="M97.9238 45.6339V40.8947C96.94 35.0176 95.0769 29.4122 92.3348 24.0782C91.8422 23.1705 91.2551 22.3297 90.5738 21.5557C90.003 21.4907 89.4925 21.6436 89.0426 22.0143C87.7456 23.1561 86.495 24.3536 85.291 25.6069C82.0615 29.4434 78.7181 33.1889 75.2613 36.8434C74.0679 37.8933 72.7407 38.097 71.2801 37.455C70.5909 37.0856 69.9274 36.6779 69.2895 36.2319C65.898 33.3418 62.4781 30.4882 59.0301 27.6708C57.489 26.5913 55.9066 25.5722 54.2832 24.6132C47.8379 20.9617 40.9472 19.5858 33.6113 20.4855C29.7362 21.3335 26.01 22.6075 22.4332 24.3075C20.3185 25.2458 18.5066 26.5962 16.9973 28.3587C14.738 31.3898 12.7474 34.6003 11.0254 37.99C9.64097 39.3276 8.82431 40.9583 8.57539 42.8821C8.42712 45.1805 8.22296 47.4736 7.96289 49.7616C7.43709 52.4422 6.26314 54.7864 4.44102 56.794C2.62391 58.2245 1.11818 59.9061 -0.0761719 61.8389V63.3677C0.183839 63.7296 0.54113 63.9844 0.995703 64.1321C0.997415 65.1391 1.45679 65.8271 2.37383 66.196C3.34692 66.4826 4.34223 66.61 5.35977 66.5782C7.68886 66.4178 10.0113 66.2395 12.327 66.0431C14.5697 67.3632 16.8155 68.688 19.0645 70.0179C21.4815 71.3774 24.0337 72.3967 26.7207 73.0755C30.6419 73.7285 34.5722 73.7796 38.5113 73.2283C47.8924 72.5323 55.7783 68.7868 62.1691 61.9918C65.2277 58.4353 67.8308 54.5623 69.9785 50.3731C72.7786 46.2913 76.1727 45.7562 80.1613 48.7679C82.7566 50.9301 85.5129 52.8664 88.4301 54.5773C90.1279 55.6347 91.94 56.4245 93.866 56.9469L94.402 56.8704C95.2033 56.0103 95.7902 55.0166 96.1629 53.8893C97.0377 51.1774 97.6246 48.4256 97.9238 45.6339ZM29.0176 59.928C27.754 59.0424 26.3759 58.4055 24.8832 58.017C26.0872 58.8352 27.1847 59.8035 28.1754 60.9217L31.8504 67.9541C32.7811 67.2475 33.7254 66.5595 34.6832 65.8902C38.0594 63.0966 40.1642 59.6038 40.9977 55.412L42.7928 57.2071C43.1833 57.5976 43.8165 57.5976 44.207 57.2071C44.5976 56.8166 44.5976 56.1834 44.207 55.7929L41.19 52.7759C41.1786 52.7285 41.166 52.6819 41.1521 52.6362C42.8796 51.3614 44 49.3116 44 47C44 43.134 40.866 40 37 40C33.134 40 30 43.134 30 47C30 48.941 30.79 50.6975 32.066 51.9655C30.7256 52.532 29.4542 53.3261 28.252 54.3479C29.4186 54.0023 30.5926 53.671 31.7738 53.3542C32.367 53.2429 32.9617 53.1571 33.5578 53.0966C34.5743 53.6717 35.7488 54 37 54C37.6022 54 38.1866 53.924 38.7442 53.7809C37.8315 57.9682 35.7633 61.4696 32.5395 64.285C31.4572 62.77 30.2833 61.3176 29.0176 59.928ZM34.3434 51.2366C32.9357 50.3521 32 48.7853 32 47C32 44.2386 34.2386 42 37 42C39.7614 42 42 44.2386 42 47C42 48.7281 41.1233 50.2515 39.7904 51.1496C39.7236 51.1186 39.6545 51.0891 39.5832 51.0611C37.7426 50.8097 35.996 50.8683 34.3434 51.2366Z" fill="#FFDF01"/>
</g>
<defs>
<clipPath id="clip0_680_96">
<rect width="98" height="85" fill="white"/>
</clipPath>
</defs>
</svg>
