<svg width="16" height="16" viewBox="0 0 16 16" fill="none" xmlns="http://www.w3.org/2000/svg">
<path fill-rule="evenodd" clip-rule="evenodd" d="M2 7C2 4.20943 4.1861 2 6.81868 2C9.45126 2 11.6374 4.20943 11.6374 7C11.6374 8.35432 11.1225 9.57176 10.2915 10.4662C10.2711 10.4831 10.2512 10.5009 10.2319 10.5196C10.1978 10.5527 10.1665 10.5876 10.1381 10.6241C9.26958 11.4793 8.09675 12 6.81868 12C4.1861 12 2 9.79057 2 7ZM10.88 12.6244C9.74915 13.4873 8.34635 14 6.81868 14C3.02412 14 0 10.8368 0 7C0 3.16315 3.02412 0 6.81868 0C10.6132 0 13.6374 3.16315 13.6374 7C13.6374 8.5666 13.1332 10.0209 12.2783 11.1934L14.8098 13.8038C15.1943 14.2003 15.1846 14.8334 14.7881 15.2179C14.3917 15.6024 13.7586 15.5926 13.3741 15.1962L10.88 12.6244Z" fill="white"/>
</svg>
