<svg width="50" height="46" viewBox="0 0 50 46" fill="none" xmlns="http://www.w3.org/2000/svg">
<path fill-rule="evenodd" clip-rule="evenodd" d="M0.0424985 23.4721C-0.44311 15.3475 3.25519 7.0636 9.9916 2.51218C16.2531 -1.71837 24.2271 0.25452 31.5257 2.20058C38.3754 4.02692 45.7303 6.40237 48.7219 12.839C51.6815 19.2068 49.0138 26.4589 45.6703 32.6331C42.5672 38.3634 37.7918 42.9648 31.5017 44.6382C24.915 46.3904 17.9795 45.311 12.3222 41.5046C5.97811 37.2363 0.499225 31.1135 0.0424985 23.4721Z" fill="#FFDF01"/>
<path d="M14.9224 24.5094L13.7391 23.3293C13.238 22.8296 13.238 22.0216 13.7391 21.5272L24.0961 11.193C24.5972 10.6933 25.4074 10.6933 25.9032 11.193L36.2602 21.5219C36.7613 22.0216 36.7613 22.8296 36.2602 23.324L35.0769 24.5041C34.5705 25.0091 33.7442 24.9985 33.2485 24.4829L27.1345 18.0824V33.3605C27.1345 34.0676 26.5641 34.6364 25.8552 34.6364H24.1494C23.4405 34.6364 22.8701 34.0676 22.8701 33.3605V18.0824L16.7508 24.4882C16.255 25.0091 15.4288 25.0198 14.9224 24.5094Z" fill="#000F1E"/>
</svg>
