<svg width="214" height="62" viewBox="0 0 214 62" fill="none" xmlns="http://www.w3.org/2000/svg">
<path fill-rule="evenodd" clip-rule="evenodd" d="M28.7672 0C26.5763 0 24.5349 0.64054 22.8203 1.74457C21.6366 2.31138 20.5278 3.13834 19.5625 4.22546L3.25766 22.5883C-0.775998 27.1311 -0.775988 34.4964 3.25767 39.0392L19.5625 57.402C19.9651 57.8554 20.3926 58.2635 20.8402 58.6264C22.8414 60.706 25.6532 62 28.7672 62H202.999C209.074 62 213.999 57.0751 213.999 51V11C213.999 4.92487 209.074 0 202.999 0H28.7672ZM24.8117 38C28.4897 38 31.4712 34.6421 31.4712 30.5C31.4712 26.3579 28.4897 23 24.8117 23C21.1338 23 18.1523 26.3579 18.1523 30.5C18.1523 34.6421 21.1338 38 24.8117 38Z" fill="#FFDF01"/>
</svg>
