<svg width="2074" height="252" viewBox="0 0 2074 252" fill="none" xmlns="http://www.w3.org/2000/svg">
<path opacity="0.958" fill-rule="evenodd" clip-rule="evenodd" d="M2074 173.856C1939.08 202.835 1802.94 224.093 1665.57 237.631C1422.27 261.707 1179.83 255.074 938.25 217.732C800.826 191.665 662.188 176.74 522.356 172.958C346.339 167.72 172.39 184.027 0.497681 221.88V199.997C80.5122 182.716 161.274 170.055 242.772 162.014C445.167 143.719 646.816 150.02 847.709 180.918C970.059 204.462 1093.43 219.719 1217.83 226.686C1456.38 238.731 1693.18 223.475 1928.24 180.918C1977.03 171.742 2025.62 162.482 2074 153.139V173.856ZM2074 123.149C1914.72 158.23 1753.71 181.797 1590.94 193.853C1373.04 210.077 1156.14 201.454 940.24 167.984C828.048 146.787 714.951 132.858 600.958 126.195C398.703 113.609 198.546 128.592 0.497681 171.145V150.462C90.2604 130.592 180.965 116.864 272.621 109.281C465.803 94.4072 658.168 101.703 849.699 131.17C1023.23 164.41 1198.34 181.158 1375.04 181.416C1610.86 179.775 1843.84 153.28 2074 101.93V123.149Z" fill="#007BFF"/>
<path opacity="0.96" fill-rule="evenodd" clip-rule="evenodd" d="M2074 74.3581C1963.92 97.9603 1852.98 116.566 1741.18 130.176C1441.22 167.465 1142.73 158.179 845.719 102.317C747.387 87.642 648.557 78.355 549.22 74.4578C364.208 66.8096 181.297 82.8224 0.497681 122.495V100.428C81.1829 83.1955 162.604 70.5586 244.762 62.5182C446.152 44.4328 646.806 50.7349 846.714 81.4225C990.376 109.03 1135.3 125.28 1281.51 130.176C1548.91 137.167 1813.07 111.244 2074 52.4082V74.3581Z" fill="#007AFF"/>
<path opacity="0.972" fill-rule="evenodd" clip-rule="evenodd" d="M2074 21.6521C1917.93 55.7683 1760.23 79.0078 1600.89 91.3715C1375.96 108.883 1152.09 99.9282 929.295 64.5076C827.282 45.2501 724.473 32.3156 620.857 25.7041C411.935 10.8257 205.142 25.4765 0.497681 69.6573V48.8643C113.063 23.8346 226.993 8.48647 342.268 2.81993C510.586 -5.05619 678.078 3.56615 844.724 28.6889C1042.58 66.79 1242.24 83.373 1443.69 78.437C1656.28 72.514 1866.39 46.4799 2074 0.3327V21.6521Z" fill="#007BFF"/>
</svg>
