<svg width="28" height="20" viewBox="0 0 28 20" fill="none" xmlns="http://www.w3.org/2000/svg">
<path d="M0.666016 2.00033C0.666016 1.26395 1.26297 0.666992 1.99935 0.666992H25.9993C26.7357 0.666992 27.3327 1.26395 27.3327 2.00033C27.3327 2.73671 26.7357 3.33366 25.9993 3.33366H1.99935C1.26297 3.33366 0.666016 2.73671 0.666016 2.00033Z" fill="white"/>
<path d="M8.66602 10.0003C8.66602 9.26395 9.26297 8.66699 9.99935 8.66699H25.9993C26.7357 8.66699 27.3327 9.26395 27.3327 10.0003C27.3327 10.7367 26.7357 11.3337 25.9993 11.3337H9.99935C9.26297 11.3337 8.66602 10.7367 8.66602 10.0003Z" fill="white"/>
<path d="M1.99935 16.667C1.26297 16.667 0.666016 17.2639 0.666016 18.0003C0.666016 18.7367 1.26297 19.3337 1.99935 19.3337H25.9993C26.7357 19.3337 27.3327 18.7367 27.3327 18.0003C27.3327 17.2639 26.7357 16.667 25.9993 16.667H1.99935Z" fill="white"/>
</svg>
