<svg width="24" height="24" viewBox="0 0 24 24" fill="none" xmlns="http://www.w3.org/2000/svg">
<g clip-path="url(#clip0_460_791)">
<path fill-rule="evenodd" clip-rule="evenodd" d="M0 0C-0.552285 0 -1 0.447715 -1 1C-1 1.55228 -0.552285 2 0 2H3.18032L4.01195 6.15508C4.01638 6.18353 4.02201 6.21159 4.02879 6.2392L5.69916 14.5848C5.83647 15.2751 6.21225 15.8959 6.76048 16.3373C7.3062 16.7766 7.98837 17.011 8.68864 17H18.3914C19.0916 17.011 19.7738 16.7766 20.3195 16.3373C20.868 15.8958 21.2437 15.2754 21.3808 14.5848L21.3823 14.5773L22.9823 6.18733C23.0381 5.89458 22.9605 5.59218 22.7705 5.36256C22.5805 5.13293 22.298 5 22 5H5.82043L4.98055 0.803743C4.88701 0.336385 4.47663 0 4 0H0ZM6.22073 7H20.7913L19.4185 14.1984C19.3723 14.4273 19.2474 14.6328 19.0654 14.7793C18.8826 14.9265 18.6538 15.0047 18.4192 15.0002L18.4 15H8.68L8.66084 15.0002C8.42619 15.0047 8.19743 14.9265 8.01461 14.7793C7.83179 14.6322 7.70656 14.4254 7.66084 14.1952L6.22073 7Z" fill="white"/>
<path d="M6 21C6 19.8954 6.89543 19 8 19C9.10457 19 10 19.8954 10 21C10 22.1046 9.10457 23 8 23C6.89543 23 6 22.1046 6 21Z" fill="white"/>
<path d="M17 21C17 19.8954 17.8954 19 19 19C20.1046 19 21 19.8954 21 21C21 22.1046 20.1046 23 19 23C17.8954 23 17 22.1046 17 21Z" fill="white"/>
</g>
<defs>
<clipPath id="clip0_460_791">
<rect width="24" height="24" fill="white"/>
</clipPath>
</defs>
</svg>
