<?xml version="1.0" encoding="UTF-8"?>
<!DOCTYPE svg PUBLIC "-//W3C//DTD SVG 1.1//EN" "http://www.w3.org/Graphics/SVG/1.1/DTD/svg11.dtd">
<svg xmlns="http://www.w3.org/2000/svg" version="1.1" width="4521px" height="560px" style="shape-rendering:geometricPrecision; text-rendering:geometricPrecision; image-rendering:optimizeQuality; fill-rule:evenodd; clip-rule:evenodd" xmlns:xlink="http://www.w3.org/1999/xlink">
<g><path style="opacity:0.986" fill="#fedf00" d="M 4181.5,-0.5 C 4185.17,-0.5 4188.83,-0.5 4192.5,-0.5C 4233.27,8.30877 4265.44,29.9754 4289,64.5C 4317.18,104.832 4342.84,146.832 4366,190.5C 4371.01,201.676 4372.68,213.342 4371,225.5C 4368.24,229.767 4364.24,231.767 4359,231.5C 4350.55,230.027 4343.05,226.527 4336.5,221C 4316.21,204.375 4296.21,187.375 4276.5,170C 4232.23,134.902 4181.73,115.736 4125,112.5C 4081.53,116.101 4041.03,128.935 4003.5,151C 4002.5,151.667 4001.5,151.667 4000.5,151C 4007.21,129.871 4016.04,109.704 4027,90.5C 4030.38,86.2407 4033.88,82.0741 4037.5,78C 4061.59,57.7847 4087.26,39.7847 4114.5,24C 4135.52,11.8019 4157.86,3.63522 4181.5,-0.5 Z"/></g>
<g><path style="opacity:0.929" fill="#007aff" d="M 3048.5,97.5 C 3083.17,97.5 3117.83,97.5 3152.5,97.5C 3152.5,163.5 3152.5,229.5 3152.5,295.5C 3117.91,299.898 3083.25,303.565 3048.5,306.5C 3048.5,236.833 3048.5,167.167 3048.5,97.5 Z"/></g>
<g><path style="opacity:0.93" fill="#007aff" d="M 3254.5,97.5 C 3289.17,97.5 3323.83,97.5 3358.5,97.5C 3358.5,152.833 3358.5,208.167 3358.5,263.5C 3323.69,268.301 3289.03,273.968 3254.5,280.5C 3254.5,219.5 3254.5,158.5 3254.5,97.5 Z"/></g>
<g><path style="opacity:0.993" fill="#007aff" d="M 3376.5,97.5 C 3412.5,97.5 3448.5,97.5 3484.5,97.5C 3484.5,147.833 3484.5,198.167 3484.5,248.5C 3448.44,251.988 3412.44,255.988 3376.5,260.5C 3376.5,206.167 3376.5,151.833 3376.5,97.5 Z"/></g>
<g><path style="opacity:0.982" fill="#007aff" d="M 3666.5,97.5 C 3763.83,97.5 3861.17,97.5 3958.5,97.5C 3958.67,126.169 3958.5,154.835 3958,183.5C 3934.79,203.709 3911.29,223.542 3887.5,243C 3846.88,240.638 3806.21,238.638 3765.5,237C 3786.5,219.333 3807.5,201.667 3828.5,184C 3774.5,183.5 3720.5,183.333 3666.5,183.5C 3666.5,154.833 3666.5,126.167 3666.5,97.5 Z"/></g>
<g><path style="opacity:0.972" fill="#007bff" d="M 2094.5,251.5 C 2092.97,252.802 2091.97,254.469 2091.5,256.5C 1885.33,211.843 1676.99,197.01 1466.5,212C 1362.36,218.645 1259.03,231.645 1156.5,251C 932.577,286.6 707.577,295.6 481.5,278C 319.147,265.402 158.48,241.569 -0.5,206.5C -0.5,204.833 -0.5,203.167 -0.5,201.5C 0.838004,197.008 2.00467,192.341 3,187.5C 3.8926,186.919 4.8926,186.585 6,186.5C 214.664,232.881 425.831,259.047 639.5,265C 841.968,269.961 1042.64,253.294 1241.5,215C 1408.99,189.75 1577.33,181.084 1746.5,189C 1862.7,194.712 1977.54,210.212 2091,235.5C 2091.04,202.461 2091.7,169.461 2093,136.5C 2099.91,114.941 2114.75,102.774 2137.5,100C 2217.83,99.0235 2298.16,98.5235 2378.5,98.5C 2378.5,127.167 2378.5,155.833 2378.5,184.5C 2316.17,184.5 2253.83,184.5 2191.5,184.5C 2191.5,194.833 2191.5,205.167 2191.5,215.5C 2244.17,215.333 2296.83,215.5 2349.5,216C 2362.69,216.394 2374.35,220.728 2384.5,229C 2391.74,236.711 2395.91,245.877 2397,256.5C 2397.5,267.828 2397.67,279.162 2397.5,290.5C 2296.72,277.21 2196.72,259.544 2097.5,237.5C 2095.73,241.997 2094.73,246.664 2094.5,251.5 Z"/></g>
<g><path style="opacity:0.99" fill="#007aff" d="M 2475.5,98.5 C 2552.5,98.5 2629.5,98.5 2706.5,98.5C 2706.5,127.167 2706.5,155.833 2706.5,184.5C 2642.5,183.833 2578.5,183.5 2514.5,183.5C 2514.5,223.5 2514.5,263.5 2514.5,303.5C 2479.79,300.273 2445.12,296.606 2410.5,292.5C 2410.33,248.832 2410.5,205.165 2411,161.5C 2414.9,122.434 2436.4,101.434 2475.5,98.5 Z"/></g>
<g><path style="opacity:0.989" fill="#007aff" d="M 2715.5,98.5 C 2750.17,98.5 2784.83,98.5 2819.5,98.5C 2819.5,136.167 2819.5,173.833 2819.5,211.5C 2855.17,211.5 2890.83,211.5 2926.5,211.5C 2926.5,173.833 2926.5,136.167 2926.5,98.5C 2961.17,98.5 2995.83,98.5 3030.5,98.5C 3030.5,168.5 3030.5,238.5 3030.5,308.5C 2995.54,311.203 2960.54,313.203 2925.5,314.5C 2925.5,303.833 2925.5,293.167 2925.5,282.5C 2890.17,282.5 2854.83,282.5 2819.5,282.5C 2819.5,294.167 2819.5,305.833 2819.5,317.5C 2784.83,317.599 2750.16,317.266 2715.5,316.5C 2715.5,243.833 2715.5,171.167 2715.5,98.5 Z"/></g>
<g><path style="opacity:0.992" fill="#fede01" d="M 4520.5,267.5 C 4520.5,277.833 4520.5,288.167 4520.5,298.5C 4518.55,316.761 4514.71,334.761 4509,352.5C 4506.57,359.874 4502.73,366.374 4497.5,372C 4496.33,372.167 4495.17,372.333 4494,372.5C 4481.42,369.083 4469.59,363.917 4458.5,357C 4439.45,345.809 4421.45,333.143 4404.5,319C 4378.45,299.3 4356.29,302.8 4338,329.5C 4326.5,351.178 4313.5,371.845 4299,391.5C 4256.33,444.426 4200.83,473.593 4132.5,479C 4106.77,482.606 4081.11,482.272 4055.5,478C 4035.27,472.922 4016.27,464.922 3998.5,454C 3987.17,447 3975.83,440 3964.5,433C 3962.58,432.192 3960.58,431.692 3958.5,431.5C 3955.2,432.21 3951.87,432.543 3948.5,432.5C 3940.93,432.782 3933.6,433.782 3926.5,435.5C 3919.49,435.666 3912.49,435.5 3905.5,435C 3894.73,435.145 3888.73,429.978 3887.5,419.5C 3880.84,416.687 3878.67,411.687 3881,404.5C 3882.26,401.644 3883.76,398.977 3885.5,396.5C 3895.19,386.807 3904.53,376.807 3913.5,366.5C 3918.48,361.225 3922.48,355.225 3925.5,348.5C 3930.29,338.785 3933.29,328.451 3934.5,317.5C 3935.03,307.84 3935.53,298.173 3936,288.5C 3936.43,272.844 3942.1,259.511 3953,248.5C 3964.25,226.327 3977.25,205.327 3992,185.5C 4004.68,170.905 4020.18,160.405 4038.5,154C 4062.49,143.226 4087.49,135.893 4113.5,132C 4156.92,130.021 4197.58,139.687 4235.5,161C 4246.1,167.273 4256.44,173.939 4266.5,181C 4289.02,199.429 4311.35,218.095 4333.5,237C 4337.67,239.917 4342,242.584 4346.5,245C 4356.04,249.2 4364.71,247.867 4372.5,241C 4395.08,217.095 4416.91,192.595 4438,167.5C 4445.86,159.302 4454.03,151.469 4462.5,144C 4465.44,141.575 4468.77,140.575 4472.5,141C 4476.95,146.063 4480.78,151.563 4484,157.5C 4501.91,192.391 4514.07,229.057 4520.5,267.5 Z M 4043.5,379.5 C 4053.25,382.041 4062.25,386.207 4070.5,392C 4078.77,401.09 4086.43,410.59 4093.5,420.5C 4115.14,401.573 4128.8,377.906 4134.5,349.5C 4131.37,347.978 4128.04,347.145 4124.5,347C 4112.41,346.095 4100.41,346.762 4088.5,349C 4080.79,351.072 4073.12,353.239 4065.5,355.5C 4086.84,337.337 4111.5,330.171 4139.5,334C 4147.17,337.018 4150.84,342.684 4150.5,351C 4146.89,383.57 4132.55,410.237 4107.5,431C 4101.24,435.378 4095.08,439.878 4089,444.5C 4081,429.167 4073,413.833 4065,398.5C 4058.53,391.186 4051.36,384.852 4043.5,379.5 Z"/></g>
<g><path style="opacity:0.96" fill="#007aff" d="M -0.5,259.5 C -0.5,257.5 -0.5,255.5 -0.5,253.5C 0.786433,248.443 2.4531,243.443 4.5,238.5C 267.235,297.873 533.235,324.04 802.5,317C 949.448,312.08 1095.11,295.747 1239.5,268C 1440.42,237.157 1642.09,230.823 1844.5,249C 1929.28,257.297 2013.28,270.464 2096.5,288.5C 2095.92,295.257 2094.75,301.924 2093,308.5C 2092.44,309.022 2091.77,309.355 2091,309.5C 1908.96,269.466 1724.79,253.299 1538.5,261C 1438.66,264.917 1339.33,274.251 1240.5,289C 941.985,345.145 641.985,354.478 340.5,317C 225.936,303.053 112.269,283.887 -0.5,259.5 Z"/></g>
<g><path style="opacity:0.552" fill="#f5f9ff" d="M 2094.5,251.5 C 2094.37,253.292 2094.7,254.958 2095.5,256.5C 2094.83,256.5 2094.5,256.833 2094.5,257.5C 2093.21,257.737 2092.21,257.404 2091.5,256.5C 2091.97,254.469 2092.97,252.802 2094.5,251.5 Z"/></g>
<g><path style="opacity:0.958" fill="#007bff" d="M 2095.5,256.5 C 2154.15,269.63 2213.15,280.963 2272.5,290.5C 2272.5,290.833 2272.5,291.167 2272.5,291.5C 2226.17,291.667 2179.83,291.5 2133.5,291C 2112.89,288.548 2099.89,277.382 2094.5,257.5C 2094.5,256.833 2094.83,256.5 2095.5,256.5 Z"/></g>
<g><path style="opacity:0.965" fill="#007aff" d="M 3741.5,256.5 C 3782.91,256.468 3824.24,258.135 3865.5,261.5C 3853.98,271.521 3842.31,281.355 3830.5,291C 3788.18,290.09 3745.85,289.09 3703.5,288C 3716.42,277.72 3729.09,267.22 3741.5,256.5 Z"/></g>
<g><path style="opacity:0.975" fill="#007aff" d="M 3479.5,267.5 C 3481.17,267.5 3482.83,267.5 3484.5,267.5C 3484.5,278.5 3484.5,289.5 3484.5,300.5C 3448.39,303.549 3412.39,307.549 3376.5,312.5C 3376.5,301.5 3376.5,290.5 3376.5,279.5C 3410.96,275.339 3445.29,271.339 3479.5,267.5 Z"/></g>
<g><path style="opacity:0.908" fill="#007aff" d="M 3352.5,282.5 C 3354.5,282.5 3356.5,282.5 3358.5,282.5C 3358.82,293.415 3358.49,304.248 3357.5,315C 3294.98,325.865 3232.31,335.865 3169.5,345C 3129.58,350.269 3089.58,354.769 3049.5,358.5C 3048.57,347.538 3048.23,336.538 3048.5,325.5C 3083.25,322.625 3117.92,318.958 3152.5,314.5C 3152.5,315.833 3152.5,317.167 3152.5,318.5C 3186.5,318.5 3220.5,318.5 3254.5,318.5C 3254.5,312.167 3254.5,305.833 3254.5,299.5C 3287.29,293.805 3319.96,288.138 3352.5,282.5 Z"/></g>
<g><path style="opacity:0.619" fill="#fdfeff" d="M 2272.5,290.5 C 2279.83,290.5 2287.17,290.5 2294.5,290.5C 2294.5,291.833 2294.5,293.167 2294.5,294.5C 2294.5,295.167 2294.17,295.5 2293.5,295.5C 2286.32,294.472 2279.32,293.139 2272.5,291.5C 2272.5,291.167 2272.5,290.833 2272.5,290.5 Z"/></g>
<g><path style="opacity:0.956" fill="#007aff" d="M 2294.5,294.5 C 2328.76,299.966 2363.1,304.966 2397.5,309.5C 2397.67,320.505 2397.5,331.505 2397,342.5C 2348.75,335.82 2300.59,328.32 2252.5,320C 2252.17,319.667 2251.83,319.333 2251.5,319C 2265.5,318.5 2279.5,318.333 2293.5,318.5C 2293.5,310.833 2293.5,303.167 2293.5,295.5C 2294.17,295.5 2294.5,295.167 2294.5,294.5 Z"/></g>
<g><path style="opacity:0.968" fill="#007bfe" d="M 3934.5,317.5 C 3933.29,328.451 3930.29,338.785 3925.5,348.5C 3838.01,340.772 3750.34,337.772 3662.5,339.5C 3662.33,333.824 3662.5,328.157 3663,322.5C 3668.17,318 3673.33,313.5 3678.5,309C 3721.53,307.234 3764.53,307.734 3807.5,310.5C 3805.02,312.483 3802.68,314.65 3800.5,317C 3845.17,317.5 3889.83,317.667 3934.5,317.5 Z"/></g>
<g><path style="opacity:0.974" fill="#007aff" d="M 2410.5,311.5 C 2508.14,323.748 2606.14,331.581 2704.5,335C 2706.46,345.577 2707.13,356.41 2706.5,367.5C 2607.78,364.535 2509.45,356.701 2411.5,344C 2410.51,333.248 2410.18,322.415 2410.5,311.5 Z"/></g>
<g><path style="opacity:0.973" fill="#007aff" d="M 3486.5,318.5 C 3537.5,318.5 3588.5,318.5 3639.5,318.5C 3639.5,325.833 3639.5,333.167 3639.5,340.5C 3551.49,343.744 3463.82,351.077 3376.5,362.5C 3376.5,352.167 3376.5,341.833 3376.5,331.5C 3413.25,326.714 3449.92,322.38 3486.5,318.5 Z"/></g>
<g><path style="opacity:0.984" fill="#fedf00" d="M 4369.5,324.5 C 4372.5,324.5 4375.5,324.5 4378.5,324.5C 4381.26,348.843 4381.09,373.176 4378,397.5C 4373.3,419.642 4367.96,441.642 4362,463.5C 4356.31,488.872 4345.31,511.539 4329,531.5C 4305.11,554.43 4277.28,560.93 4245.5,551C 4212.46,538.994 4183.13,521.161 4157.5,497.5C 4187.09,491.247 4215.09,480.747 4241.5,466C 4274.04,444.455 4300.88,417.289 4322,384.5C 4330.75,369.334 4339.75,354.334 4349,339.5C 4354.38,332.248 4361.22,327.248 4369.5,324.5 Z"/></g>
<g><path style="opacity:0.964" fill="#007aff" d="M 3021.5,327.5 C 3024.5,327.5 3027.5,327.5 3030.5,327.5C 3030.5,338.5 3030.5,349.5 3030.5,360.5C 2995.52,362.874 2960.52,364.874 2925.5,366.5C 2925.5,355.5 2925.5,344.5 2925.5,333.5C 2957.72,332.57 2989.72,330.57 3021.5,327.5 Z"/></g>
<g><path style="opacity:0.913" fill="#007aff" d="M 3351.5,334.5 C 3353.83,334.5 3356.17,334.5 3358.5,334.5C 3358.82,344.217 3358.32,353.884 3357,363.5C 3270.75,381.041 3183.75,394.707 3096,404.5C 3077.88,402.028 3064.38,392.861 3055.5,377C 3154.97,367.433 3253.64,353.266 3351.5,334.5 Z"/></g>
<g><path style="opacity:0.964" fill="#007aff" d="M 2715.5,335.5 C 2750.16,336.278 2784.83,336.611 2819.5,336.5C 2819.5,347.5 2819.5,358.5 2819.5,369.5C 2784.83,369.382 2750.16,369.048 2715.5,368.5C 2715.5,357.5 2715.5,346.5 2715.5,335.5 Z"/></g>
<g><path style="opacity:0.958" fill="#007bff" d="M -0.5,359.5 C -0.5,357.5 -0.5,355.5 -0.5,353.5C 1.09242,349.068 2.25909,344.402 3,339.5C 52.6144,349.088 102.448,358.588 152.5,368C 388.749,410.772 626.749,426.106 866.5,414C 991.532,406.997 1115.53,391.663 1238.5,368C 1440.41,336.945 1643.08,330.612 1846.5,349C 1928.92,357.132 2010.59,369.965 2091.5,387.5C 2091.5,377.833 2091.5,368.167 2091.5,358.5C 1891.96,315.485 1690.29,300.318 1486.5,313C 1371.93,319.696 1258.26,333.696 1145.5,355C 928.507,388.64 710.507,397.306 491.5,381C 325.7,368.719 161.7,344.553 -0.5,308.5C -0.5,306.833 -0.5,305.167 -0.5,303.5C 0.949793,299.034 2.11646,294.368 3,289.5C 3.72472,288.941 4.55805,288.608 5.5,288.5C 236.985,340.183 471.318,366.85 708.5,368.5C 886.091,368.241 1062.09,351.408 1236.5,318C 1429,288.384 1622.34,281.051 1816.5,296C 1908.79,303.636 2000.12,317.47 2090.5,337.5C 2091.5,331.202 2091.83,324.868 2091.5,318.5C 2109.5,318.333 2127.5,318.5 2145.5,319C 2228.36,335.81 2311.69,349.81 2395.5,361C 2397.09,372.236 2393.42,381.903 2384.5,390C 2288.07,377.706 2192.4,360.873 2097.5,339.5C 2095.77,345.676 2094.1,351.843 2092.5,358C 2173.84,375.536 2255.51,390.869 2337.5,404C 2278.17,404.667 2218.83,404.667 2159.5,404C 2138.55,399.877 2117.71,395.377 2097,390.5C 2095.98,397.134 2094.15,403.467 2091.5,409.5C 1918.25,371.22 1742.92,354.72 1565.5,360C 1424.96,363.801 1285.62,378.801 1147.5,405C 904.692,442.531 661.025,449.198 416.5,425C 276.227,411.176 137.227,389.343 -0.5,359.5 Z"/></g>
<g><path style="opacity:0.978" fill="#007bfe" d="M 3913.5,366.5 C 3904.53,376.807 3895.19,386.807 3885.5,396.5C 3811.25,390.856 3736.91,389.189 3662.5,391.5C 3662.5,380.5 3662.5,369.5 3662.5,358.5C 3746.32,356.794 3829.98,359.461 3913.5,366.5 Z"/></g>
<g><path style="opacity:0.969" fill="#007aff" d="M 3628.5,359.5 C 3632.17,359.5 3635.83,359.5 3639.5,359.5C 3639.5,370.167 3639.5,380.833 3639.5,391.5C 3583.39,393.674 3527.39,397.507 3471.5,403C 3456.5,403.333 3441.5,403.667 3426.5,404C 3421.83,410 3417.17,416 3412.5,422C 3408.17,422.667 3403.83,422.667 3399.5,422C 3402.59,415.991 3405.26,409.824 3407.5,403.5C 3397.17,403.5 3386.83,403.5 3376.5,403.5C 3376.5,396.167 3376.5,388.833 3376.5,381.5C 3460.35,370.725 3544.35,363.392 3628.5,359.5 Z"/></g>
<g><path style="opacity:0.965" fill="#017bff" d="M 2499.5,404.5 C 2482.7,402.051 2465.7,400.051 2448.5,398.5C 2431.32,392.817 2419.98,381.317 2414.5,364C 2511.46,375.856 2608.79,383.356 2706.5,386.5C 2706.5,392.5 2706.5,398.5 2706.5,404.5C 2637.5,404.5 2568.5,404.5 2499.5,404.5 Z"/></g>
<g><path style="opacity:0.949" fill="#007aff" d="M 3017.5,379.5 C 3021.83,379.5 3026.17,379.5 3030.5,379.5C 3030.5,387.833 3030.5,396.167 3030.5,404.5C 2995.5,404.5 2960.5,404.5 2925.5,404.5C 2925.5,398.167 2925.5,391.833 2925.5,385.5C 2956.38,384.391 2987.04,382.391 3017.5,379.5 Z"/></g>
<g><path style="opacity:0.811" fill="#007aff" d="M 3338.5,386.5 C 3340.86,386.337 3343.19,386.503 3345.5,387C 3336.08,396.375 3324.75,402.041 3311.5,404C 3287.2,405.584 3262.86,405.917 3238.5,405C 3271.87,398.718 3305.2,392.551 3338.5,386.5 Z"/></g>
<g><path style="opacity:0.944" fill="#007aff" d="M 2715.5,387.5 C 2750.16,388.048 2784.83,388.382 2819.5,388.5C 2819.5,393.833 2819.5,399.167 2819.5,404.5C 2784.83,404.5 2750.17,404.5 2715.5,404.5C 2715.5,398.833 2715.5,393.167 2715.5,387.5 Z"/></g>
<g><path style="opacity:1" fill="#dcecff" d="M 2448.5,398.5 C 2465.7,400.051 2482.7,402.051 2499.5,404.5C 2485.74,404.985 2472.08,404.151 2458.5,402C 2454.89,401.299 2451.56,400.132 2448.5,398.5 Z"/></g>
<g><path style="opacity:0.926" fill="#007aff" d="M 2820.5,403.5 C 2826.54,403.171 2832.54,403.504 2838.5,404.5C 2833.95,410.425 2829.29,416.258 2824.5,422C 2820.46,422.827 2816.46,422.66 2812.5,421.5C 2815.73,415.714 2818.39,409.714 2820.5,403.5 Z"/></g>
<g><path style="opacity:0.935" fill="#007aff" d="M 2284.5,427.5 C 2321.64,424.969 2341.3,442.303 2343.5,479.5C 2341.33,516.844 2321.66,534.01 2284.5,531C 2265.03,526.193 2252.86,514.027 2248,494.5C 2242.77,471.561 2248.6,452.061 2265.5,436C 2271.45,432.081 2277.79,429.248 2284.5,427.5 Z M 2288.5,439.5 C 2311.05,438.547 2324.22,449.214 2328,471.5C 2330.89,488.504 2326.06,502.671 2313.5,514C 2301.73,520.929 2289.73,521.262 2277.5,515C 2268.91,508.665 2263.74,500.165 2262,489.5C 2259.9,476.779 2261.9,464.779 2268,453.5C 2273.12,446.199 2279.95,441.533 2288.5,439.5 Z"/></g>
<g><path style="opacity:0.931" fill="#007aff" d="M 2552.5,427.5 C 2565.29,425.835 2577.29,428.002 2588.5,434C 2595.81,440.128 2599.81,447.961 2600.5,457.5C 2596.61,457.764 2592.77,458.431 2589,459.5C 2588.17,459.167 2587.33,458.833 2586.5,458.5C 2582.29,443.152 2572.29,436.985 2556.5,440C 2544.08,442.705 2539.91,449.872 2544,461.5C 2545.41,462.787 2546.91,463.954 2548.5,465C 2560.83,468.667 2573.17,472.333 2585.5,476C 2602.9,484.363 2607.73,497.53 2600,515.5C 2594.68,523.749 2587.18,528.916 2577.5,531C 2566.25,532.368 2555.25,531.368 2544.5,528C 2532.05,521.698 2525.38,511.531 2524.5,497.5C 2528.94,496.974 2533.27,495.974 2537.5,494.5C 2542.32,515.588 2555.32,523.421 2576.5,518C 2590.49,512.667 2593.15,504 2584.5,492C 2579.77,489.422 2574.77,487.422 2569.5,486C 2558.69,484.065 2548.36,480.731 2538.5,476C 2528.87,468.337 2525.7,458.504 2529,446.5C 2533.77,436.22 2541.6,429.886 2552.5,427.5 Z"/></g>
<g><path style="opacity:0.924" fill="#007aff" d="M 2093.5,429.5 C 2100.86,429.169 2108.2,429.503 2115.5,430.5C 2124.57,457.548 2133.74,484.548 2143,511.5C 2152.08,484.095 2161.25,456.761 2170.5,429.5C 2177.17,429.5 2183.83,429.5 2190.5,429.5C 2190.5,462.833 2190.5,496.167 2190.5,529.5C 2185.83,529.5 2181.17,529.5 2176.5,529.5C 2176.67,503.165 2176.5,476.831 2176,450.5C 2166.8,476.425 2157.8,502.425 2149,528.5C 2144.33,529.833 2139.67,529.833 2135,528.5C 2126.2,501.759 2117.2,475.093 2108,448.5C 2107.5,475.498 2107.33,502.498 2107.5,529.5C 2102.83,529.5 2098.17,529.5 2093.5,529.5C 2093.5,496.167 2093.5,462.833 2093.5,429.5 Z"/></g>
<g><path style="opacity:0.933" fill="#007aff" d="M 2399.5,429.5 C 2417.56,429.054 2435.56,429.554 2453.5,431C 2466.07,435.286 2472.4,444.12 2472.5,457.5C 2471.75,471.423 2464.75,480.59 2451.5,485C 2454.67,486.833 2457.17,489.333 2459,492.5C 2465.42,504.343 2471.59,516.343 2477.5,528.5C 2472.2,529.663 2466.86,529.829 2461.5,529C 2457.14,519.787 2452.64,510.621 2448,501.5C 2440.46,488.821 2429.3,483.821 2414.5,486.5C 2414.5,500.833 2414.5,515.167 2414.5,529.5C 2409.5,529.5 2404.5,529.5 2399.5,529.5C 2399.5,496.167 2399.5,462.833 2399.5,429.5 Z M 2414.5,441.5 C 2425.21,441.188 2435.88,441.688 2446.5,443C 2457.23,447.857 2460.07,455.69 2455,466.5C 2450.16,472.116 2444,474.616 2436.5,474C 2429.17,474.5 2421.84,474.666 2414.5,474.5C 2414.5,463.5 2414.5,452.5 2414.5,441.5 Z"/></g>
<g><path style="opacity:0.92" fill="#007aff" d="M 2660.5,429.5 C 2665.5,429.5 2670.5,429.5 2675.5,429.5C 2675.33,444.504 2675.5,459.504 2676,474.5C 2690.2,459.968 2704.03,445.135 2717.5,430C 2723.83,429.333 2730.17,429.333 2736.5,430C 2723.98,443.016 2711.65,456.183 2699.5,469.5C 2712.3,489.469 2725.3,509.302 2738.5,529C 2732.47,529.83 2726.47,529.664 2720.5,528.5C 2710,512.167 2699.5,495.833 2689,479.5C 2684.67,483.833 2680.33,488.167 2676,492.5C 2675.5,504.829 2675.33,517.162 2675.5,529.5C 2670.5,529.5 2665.5,529.5 2660.5,529.5C 2660.5,496.167 2660.5,462.833 2660.5,429.5 Z"/></g>
<g><path style="opacity:0.957" fill="#007aff" d="M 2788.5,429.5 C 2809.83,429.5 2831.17,429.5 2852.5,429.5C 2852.5,433.5 2852.5,437.5 2852.5,441.5C 2836.17,441.5 2819.83,441.5 2803.5,441.5C 2803.5,451.5 2803.5,461.5 2803.5,471.5C 2818.83,471.5 2834.17,471.5 2849.5,471.5C 2849.5,475.5 2849.5,479.5 2849.5,483.5C 2834.17,483.5 2818.83,483.5 2803.5,483.5C 2803.5,494.833 2803.5,506.167 2803.5,517.5C 2820.83,517.5 2838.17,517.5 2855.5,517.5C 2855.5,521.5 2855.5,525.5 2855.5,529.5C 2833.17,529.5 2810.83,529.5 2788.5,529.5C 2788.5,496.167 2788.5,462.833 2788.5,429.5 Z"/></g>
<g><path style="opacity:0.941" fill="#007aff" d="M 3017.5,429.5 C 3023.17,429.5 3028.83,429.5 3034.5,429.5C 3047.14,462.927 3060.48,496.094 3074.5,529C 3068.92,529.806 3063.42,529.639 3058,528.5C 3054.19,518.913 3050.69,509.246 3047.5,499.5C 3033.5,499.5 3019.5,499.5 3005.5,499.5C 3002.36,509.574 2999.03,519.574 2995.5,529.5C 2990.5,529.5 2985.5,529.5 2980.5,529.5C 2992.83,496.167 3005.17,462.833 3017.5,429.5 Z M 3025.5,442.5 C 3030.55,457.623 3036.21,472.623 3042.5,487.5C 3031.85,488.499 3021.19,488.832 3010.5,488.5C 3016.07,473.364 3021.07,458.03 3025.5,442.5 Z"/></g>
<g><path style="opacity:0.92" fill="#007aff" d="M 3123.5,429.5 C 3128.5,429.5 3133.5,429.5 3138.5,429.5C 3138.33,444.504 3138.5,459.504 3139,474.5C 3153.2,459.968 3167.03,445.135 3180.5,430C 3186.83,429.333 3193.17,429.333 3199.5,430C 3186.98,443.016 3174.65,456.183 3162.5,469.5C 3175.3,489.469 3188.3,509.302 3201.5,529C 3195.47,529.83 3189.47,529.664 3183.5,528.5C 3173,512.167 3162.5,495.833 3152,479.5C 3147.67,483.833 3143.33,488.167 3139,492.5C 3138.5,504.829 3138.33,517.162 3138.5,529.5C 3133.5,529.5 3128.5,529.5 3123.5,529.5C 3123.5,496.167 3123.5,462.833 3123.5,429.5 Z"/></g>
<g><path style="opacity:0.932" fill="#007aff" d="M 3241.5,429.5 C 3246.83,429.5 3252.17,429.5 3257.5,429.5C 3267.49,457.635 3276.99,485.969 3286,514.5C 3295.55,486.403 3305.38,458.403 3315.5,430.5C 3320.8,429.337 3326.14,429.171 3331.5,430C 3318.61,462.661 3306.11,495.494 3294,528.5C 3288.67,529.833 3283.33,529.833 3278,528.5C 3265.53,495.592 3253.36,462.592 3241.5,429.5 Z"/></g>
<g><path style="opacity:0.94" fill="#007aff" d="M 3400.5,429.5 C 3406.09,429.193 3411.59,429.527 3417,430.5C 3430.37,463.405 3443.87,496.239 3457.5,529C 3451.92,529.806 3446.42,529.639 3441,528.5C 3437.3,518.928 3433.46,509.428 3429.5,500C 3415.84,499.5 3402.17,499.333 3388.5,499.5C 3385.17,509.5 3381.83,519.5 3378.5,529.5C 3373.16,529.666 3367.82,529.499 3362.5,529C 3375.86,496.088 3388.53,462.921 3400.5,429.5 Z M 3408.5,442.5 C 3413.65,457.767 3419.31,472.934 3425.5,488C 3414.84,488.5 3404.17,488.667 3393.5,488.5C 3398.9,473.302 3403.9,457.969 3408.5,442.5 Z"/></g>
<g><path style="opacity:0.933" fill="#007aff" d="M 3507.5,429.5 C 3525.56,429.054 3543.56,429.554 3561.5,431C 3574.07,435.286 3580.4,444.12 3580.5,457.5C 3579.75,471.423 3572.75,480.59 3559.5,485C 3562.67,486.833 3565.17,489.333 3567,492.5C 3573.42,504.343 3579.59,516.343 3585.5,528.5C 3580.2,529.663 3574.86,529.829 3569.5,529C 3565.14,519.787 3560.64,510.621 3556,501.5C 3548.46,488.821 3537.3,483.821 3522.5,486.5C 3522.5,500.833 3522.5,515.167 3522.5,529.5C 3517.5,529.5 3512.5,529.5 3507.5,529.5C 3507.5,496.167 3507.5,462.833 3507.5,429.5 Z M 3522.5,441.5 C 3533.21,441.188 3543.88,441.688 3554.5,443C 3565.23,447.857 3568.07,455.69 3563,466.5C 3558.16,472.116 3552,474.616 3544.5,474C 3537.17,474.5 3529.84,474.666 3522.5,474.5C 3522.5,463.5 3522.5,452.5 3522.5,441.5 Z"/></g>
<g><path style="opacity:0.917" fill="#007aff" d="M 3638.5,429.5 C 3643.5,429.5 3648.5,429.5 3653.5,429.5C 3653.5,462.833 3653.5,496.167 3653.5,529.5C 3648.5,529.5 3643.5,529.5 3638.5,529.5C 3638.5,496.167 3638.5,462.833 3638.5,429.5 Z"/></g>
<g><path style="opacity:0.952" fill="#007aff" d="M 3713.5,429.5 C 3718.17,429.5 3722.83,429.5 3727.5,429.5C 3727.05,453.877 3727.55,478.21 3729,502.5C 3732.37,514.12 3740.21,519.787 3752.5,519.5C 3768.54,518.96 3776.71,510.627 3777,494.5C 3777.5,472.836 3777.67,451.169 3777.5,429.5C 3782.17,429.5 3786.83,429.5 3791.5,429.5C 3791.67,452.502 3791.5,475.502 3791,498.5C 3788.95,521.956 3776.12,532.956 3752.5,531.5C 3729.69,533.365 3716.86,523.031 3714,500.5C 3713.5,476.836 3713.33,453.169 3713.5,429.5 Z"/></g>
<g><path style="opacity:0.923" fill="#017bfe" d="M 3926.5,435.5 C 3933.6,433.782 3940.93,432.782 3948.5,432.5C 3948.5,464.833 3948.5,497.167 3948.5,529.5C 3943.83,529.5 3939.17,529.5 3934.5,529.5C 3934.67,503.165 3934.5,476.831 3934,450.5C 3924.8,476.425 3915.8,502.425 3907,528.5C 3902.33,529.833 3897.67,529.833 3893,528.5C 3884.2,501.759 3875.2,475.093 3866,448.5C 3865.5,475.498 3865.33,502.498 3865.5,529.5C 3860.83,529.5 3856.17,529.5 3851.5,529.5C 3851.5,496.167 3851.5,462.833 3851.5,429.5C 3858.86,429.169 3866.2,429.503 3873.5,430.5C 3882.57,457.548 3891.74,484.548 3901,511.5C 3909.41,486.106 3917.91,460.773 3926.5,435.5 Z"/></g>
<g><path style="opacity:0.954" fill="#fedf00" d="M 4139.5,495.5 C 4153.05,513.219 4169.05,528.386 4187.5,541C 4154.98,543.216 4124.65,536.216 4096.5,520C 4085.33,513.25 4074.33,506.25 4063.5,499C 4078.15,499.444 4092.82,499.444 4107.5,499C 4118.39,498.546 4129.06,497.379 4139.5,495.5 Z"/></g>
</svg>
