<svg width="2431" height="556" viewBox="0 0 2431 556" fill="none" xmlns="http://www.w3.org/2000/svg">
<path opacity="0.986" fill-rule="evenodd" clip-rule="evenodd" d="M2091.78 0C2095.45 0 2099.11 0 2102.78 0C2143.55 8.80877 2175.72 30.4754 2199.28 65C2227.46 105.332 2253.12 147.332 2276.28 191C2281.29 202.176 2282.96 213.842 2281.28 226C2278.52 230.267 2274.52 232.267 2269.28 232C2260.83 230.527 2253.33 227.027 2246.78 221.5C2226.49 204.875 2206.49 187.875 2186.78 170.5C2142.51 135.402 2092.01 116.236 2035.28 113C1991.81 116.601 1951.31 129.435 1913.78 151.5C1912.78 152.167 1911.78 152.167 1910.78 151.5C1917.49 130.371 1926.32 110.204 1937.28 91C1940.66 86.7407 1944.16 82.5741 1947.78 78.5C1971.87 58.2847 1997.54 40.2847 2024.78 24.5C2045.8 12.3019 2068.14 4.13522 2091.78 0Z" fill="#FEDF00"/>
<path opacity="0.992" fill-rule="evenodd" clip-rule="evenodd" d="M2430.78 268C2430.78 278.333 2430.78 288.667 2430.78 299C2428.83 317.261 2424.99 335.261 2419.28 353C2416.85 360.374 2413.01 366.874 2407.78 372.5C2406.61 372.667 2405.45 372.833 2404.28 373C2391.7 369.583 2379.87 364.417 2368.78 357.5C2349.73 346.309 2331.73 333.643 2314.78 319.5C2288.73 299.8 2266.57 303.3 2248.28 330C2236.78 351.678 2223.78 372.345 2209.28 392C2166.61 444.926 2111.11 474.093 2042.78 479.5C2017.05 483.106 1991.39 482.772 1965.78 478.5C1945.55 473.422 1926.55 465.422 1908.78 454.5C1897.45 447.5 1886.11 440.5 1874.78 433.5C1872.86 432.692 1870.86 432.192 1868.78 432C1865.48 432.71 1862.15 433.043 1858.78 433C1851.21 433.282 1843.88 434.282 1836.78 436C1829.77 436.166 1822.77 436 1815.78 435.5C1805.01 435.645 1799.01 430.478 1797.78 420C1791.12 417.187 1788.95 412.187 1791.28 405C1792.54 402.144 1794.04 399.477 1795.78 397C1805.47 387.307 1814.81 377.307 1823.78 367C1828.76 361.725 1832.76 355.725 1835.78 349C1840.57 339.285 1843.57 328.951 1844.78 318C1845.31 308.34 1845.81 298.673 1846.28 289C1846.71 273.344 1852.38 260.011 1863.28 249C1874.53 226.827 1887.53 205.827 1902.28 186C1914.96 171.405 1930.46 160.905 1948.78 154.5C1972.77 143.726 1997.77 136.393 2023.78 132.5C2067.2 130.521 2107.86 140.187 2145.78 161.5C2156.38 167.773 2166.72 174.439 2176.78 181.5C2199.3 199.929 2221.63 218.595 2243.78 237.5C2247.95 240.417 2252.28 243.084 2256.78 245.5C2266.32 249.7 2274.99 248.367 2282.78 241.5C2305.36 217.595 2327.19 193.095 2348.28 168C2356.14 159.802 2364.31 151.969 2372.78 144.5C2375.72 142.075 2379.05 141.075 2382.78 141.5C2387.23 146.563 2391.06 152.063 2394.28 158C2412.19 192.891 2424.35 229.557 2430.78 268ZM1953.78 380C1963.53 382.541 1972.53 386.707 1980.78 392.5C1989.05 401.59 1996.71 411.09 2003.78 421C2025.42 402.073 2039.08 378.406 2044.78 350C2041.65 348.478 2038.32 347.645 2034.78 347.5C2022.69 346.595 2010.69 347.262 1998.78 349.5C1991.07 351.572 1983.4 353.739 1975.78 356C1997.12 337.837 2021.78 330.671 2049.78 334.5C2057.45 337.518 2061.12 343.184 2060.78 351.5C2057.17 384.07 2042.83 410.737 2017.78 431.5C2011.52 435.878 2005.36 440.378 1999.28 445C1991.28 429.667 1983.28 414.333 1975.28 399C1968.81 391.686 1961.64 385.352 1953.78 380Z" fill="#FEDE01"/>
<path opacity="0.984" fill-rule="evenodd" clip-rule="evenodd" d="M2279.78 325C2282.78 325 2285.78 325 2288.78 325C2291.54 349.343 2291.37 373.676 2288.28 398C2283.58 420.142 2278.24 442.142 2272.28 464C2266.59 489.372 2255.59 512.039 2239.28 532C2215.39 554.93 2187.56 561.43 2155.78 551.5C2122.74 539.494 2093.41 521.661 2067.78 498C2097.37 491.747 2125.37 481.247 2151.78 466.5C2184.32 444.955 2211.16 417.789 2232.28 385C2241.03 369.834 2250.03 354.834 2259.28 340C2264.66 332.748 2271.5 327.748 2279.78 325Z" fill="#FEDF00"/>
<path opacity="0.954" fill-rule="evenodd" clip-rule="evenodd" d="M2049.78 496C2063.33 513.719 2079.33 528.886 2097.78 541.5C2065.26 543.716 2034.93 536.716 2006.78 520.5C1995.61 513.75 1984.61 506.75 1973.78 499.5C1988.43 499.944 2003.1 499.944 2017.78 499.5C2028.67 499.046 2039.34 497.879 2049.78 496Z" fill="#FEDF00"/>
<path opacity="0.935" fill-rule="evenodd" clip-rule="evenodd" d="M194.781 428C231.921 425.469 251.581 442.803 253.781 480C251.611 517.344 231.941 534.51 194.781 531.5C175.311 526.693 163.141 514.527 158.281 495C153.051 472.061 158.881 452.561 175.781 436.5C181.731 432.581 188.071 429.748 194.781 428ZM198.781 440C221.331 439.047 234.501 449.714 238.281 472C241.171 489.004 236.341 503.171 223.781 514.5C212.011 521.429 200.011 521.762 187.781 515.5C179.191 509.165 174.021 500.665 172.281 490C170.181 477.279 172.181 465.279 178.281 454C183.401 446.699 190.231 442.033 198.781 440Z" fill="#007AFF"/>
<path opacity="0.931" fill-rule="evenodd" clip-rule="evenodd" d="M462.781 428C475.571 426.335 487.571 428.502 498.781 434.5C506.091 440.628 510.091 448.461 510.781 458C506.891 458.264 503.051 458.931 499.281 460C498.451 459.667 497.611 459.333 496.781 459C492.571 443.652 482.571 437.485 466.781 440.5C454.361 443.205 450.191 450.372 454.281 462C455.691 463.287 457.191 464.454 458.781 465.5C471.111 469.167 483.451 472.833 495.781 476.5C513.181 484.863 518.011 498.03 510.281 516C504.961 524.249 497.461 529.416 487.781 531.5C476.531 532.868 465.531 531.868 454.781 528.5C442.331 522.198 435.661 512.031 434.781 498C439.221 497.474 443.551 496.474 447.781 495C452.601 516.088 465.601 523.921 486.781 518.5C500.771 513.167 503.431 504.5 494.781 492.5C490.051 489.922 485.051 487.922 479.781 486.5C468.971 484.565 458.641 481.231 448.781 476.5C439.151 468.837 435.981 459.004 439.281 447C444.051 436.72 451.881 430.386 462.781 428Z" fill="#007AFF"/>
<path opacity="0.924" fill-rule="evenodd" clip-rule="evenodd" d="M3.78125 430C11.1413 429.669 18.4812 430.003 25.7812 431C34.8512 458.048 44.0212 485.048 53.2812 512C62.3612 484.595 71.5312 457.261 80.7812 430C87.4513 430 94.1112 430 100.781 430C100.781 463.333 100.781 496.667 100.781 530C96.1112 530 91.4513 530 86.7812 530C86.9513 503.665 86.7812 477.331 86.2812 451C77.0813 476.925 68.0813 502.925 59.2812 529C54.6112 530.333 49.9513 530.333 45.2812 529C36.4812 502.259 27.4812 475.593 18.2812 449C17.7812 475.998 17.6112 502.998 17.7812 530C13.1112 530 8.45125 530 3.78125 530C3.78125 496.667 3.78125 463.333 3.78125 430Z" fill="#007AFF"/>
<path opacity="0.933" fill-rule="evenodd" clip-rule="evenodd" d="M309.781 429.999C327.841 429.553 345.841 430.053 363.781 431.499C376.351 435.785 382.681 444.62 382.781 458C382.031 471.923 375.031 481.09 361.781 485.5C364.951 487.333 367.451 489.833 369.281 493C375.701 504.843 381.871 516.842 387.781 528.999C382.481 530.162 377.141 530.328 371.781 529.499C367.421 520.286 362.921 511.12 358.281 501.999C350.741 489.32 339.581 484.321 324.781 487C324.781 501.333 324.781 515.666 324.781 529.999C319.781 529.999 314.781 529.999 309.781 529.999C309.781 496.666 309.781 463.333 309.781 429.999ZM324.781 442C335.491 441.688 346.161 442.188 356.781 443.5C367.511 448.357 370.351 456.189 365.281 467C360.441 472.616 354.281 475.116 346.781 474.5C339.451 475 332.121 475.166 324.781 475C324.781 464 324.781 453 324.781 442Z" fill="#007AFF"/>
<path opacity="0.92" fill-rule="evenodd" clip-rule="evenodd" d="M570.781 430C575.781 430 580.781 430 585.781 430C585.611 445.004 585.781 460.004 586.281 475C600.481 460.468 614.311 445.635 627.781 430.5C634.111 429.833 640.451 429.833 646.781 430.5C634.261 443.516 621.931 456.683 609.781 470C622.581 489.969 635.581 509.802 648.781 529.5C642.751 530.33 636.751 530.164 630.781 529C620.281 512.667 609.781 496.333 599.281 480C594.951 484.333 590.611 488.667 586.281 493C585.781 505.329 585.611 517.662 585.781 530C580.781 530 575.781 530 570.781 530C570.781 496.667 570.781 463.333 570.781 430Z" fill="#007AFF"/>
<path opacity="0.926" fill-rule="evenodd" clip-rule="evenodd" d="M730.781 404C736.821 403.671 742.821 404.004 748.781 405C744.231 410.925 739.571 416.758 734.781 422.5C730.741 423.327 726.741 423.16 722.781 422C726.011 416.214 728.671 410.214 730.781 404Z" fill="#007AFF"/>
<path opacity="0.957" fill-rule="evenodd" clip-rule="evenodd" d="M698.781 430C720.111 430 741.451 430 762.781 430C762.781 434 762.781 438 762.781 442C746.451 442 730.111 442 713.781 442C713.781 452 713.781 462 713.781 472C729.111 472 744.451 472 759.781 472C759.781 476 759.781 480 759.781 484C744.451 484 729.111 484 713.781 484C713.781 495.333 713.781 506.667 713.781 518C731.111 518 748.451 518 765.781 518C765.781 522 765.781 526 765.781 530C743.451 530 721.111 530 698.781 530C698.781 496.667 698.781 463.333 698.781 430Z" fill="#007AFF"/>
<path opacity="0.941" fill-rule="evenodd" clip-rule="evenodd" d="M927.781 430C933.451 430 939.111 430 944.781 430C957.421 463.427 970.761 496.594 984.781 529.5C979.201 530.306 973.701 530.139 968.281 529C964.471 519.413 960.971 509.746 957.781 500C943.781 500 929.781 500 915.781 500C912.641 510.074 909.311 520.074 905.781 530C900.781 530 895.781 530 890.781 530C903.111 496.667 915.451 463.333 927.781 430ZM935.781 443C940.831 458.123 946.491 473.123 952.781 488C942.131 488.999 931.471 489.332 920.781 489C926.351 473.864 931.351 458.53 935.781 443Z" fill="#007AFF"/>
<path opacity="0.92" fill-rule="evenodd" clip-rule="evenodd" d="M1033.78 430C1038.78 430 1043.78 430 1048.78 430C1048.61 445.004 1048.78 460.004 1049.28 475C1063.48 460.468 1077.31 445.635 1090.78 430.5C1097.11 429.833 1103.45 429.833 1109.78 430.5C1097.26 443.516 1084.93 456.683 1072.78 470C1085.58 489.969 1098.58 509.802 1111.78 529.5C1105.75 530.33 1099.75 530.164 1093.78 529C1083.28 512.667 1072.78 496.333 1062.28 480C1057.95 484.333 1053.61 488.667 1049.28 493C1048.78 505.329 1048.61 517.662 1048.78 530C1043.78 530 1038.78 530 1033.78 530C1033.78 496.667 1033.78 463.333 1033.78 430Z" fill="#007AFF"/>
<path opacity="0.932" fill-rule="evenodd" clip-rule="evenodd" d="M1151.78 430C1157.11 430 1162.45 430 1167.78 430C1177.77 458.135 1187.27 486.469 1196.28 515C1205.83 486.903 1215.66 458.903 1225.78 431C1231.08 429.837 1236.42 429.671 1241.78 430.5C1228.89 463.161 1216.39 495.994 1204.28 529C1198.95 530.333 1193.61 530.333 1188.28 529C1175.81 496.092 1163.64 463.092 1151.78 430Z" fill="#007AFF"/>
<path opacity="0.94" fill-rule="evenodd" clip-rule="evenodd" d="M1310.78 430C1316.37 429.693 1321.87 430.027 1327.28 431C1340.65 463.905 1354.15 496.739 1367.78 529.5C1362.2 530.306 1356.7 530.139 1351.28 529C1347.58 519.428 1343.74 509.928 1339.78 500.5C1326.12 500 1312.45 499.833 1298.78 500C1295.45 510 1292.11 520 1288.78 530C1283.44 530.166 1278.1 529.999 1272.78 529.5C1286.14 496.588 1298.81 463.421 1310.78 430ZM1318.78 443C1323.93 458.267 1329.59 473.434 1335.78 488.5C1325.12 489 1314.45 489.167 1303.78 489C1309.18 473.802 1314.18 458.469 1318.78 443Z" fill="#007AFF"/>
<path opacity="0.933" fill-rule="evenodd" clip-rule="evenodd" d="M1417.78 429.999C1435.84 429.553 1453.84 430.053 1471.78 431.499C1484.35 435.785 1490.68 444.62 1490.78 458C1490.03 471.923 1483.03 481.09 1469.78 485.5C1472.95 487.333 1475.45 489.833 1477.28 493C1483.7 504.843 1489.87 516.842 1495.78 528.999C1490.48 530.162 1485.14 530.328 1479.78 529.499C1475.42 520.286 1470.92 511.12 1466.28 501.999C1458.74 489.32 1447.58 484.321 1432.78 487C1432.78 501.333 1432.78 515.666 1432.78 529.999C1427.78 529.999 1422.78 529.999 1417.78 529.999C1417.78 496.666 1417.78 463.333 1417.78 429.999ZM1432.78 442C1443.49 441.688 1454.16 442.188 1464.78 443.5C1475.51 448.357 1478.35 456.189 1473.28 467C1468.44 472.616 1462.28 475.116 1454.78 474.5C1447.45 475 1440.12 475.166 1432.78 475C1432.78 464 1432.78 453 1432.78 442Z" fill="#007AFF"/>
<path opacity="0.917" fill-rule="evenodd" clip-rule="evenodd" d="M1548.78 430C1553.78 430 1558.78 430 1563.78 430C1563.78 463.333 1563.78 496.667 1563.78 530C1558.78 530 1553.78 530 1548.78 530C1548.78 496.667 1548.78 463.333 1548.78 430Z" fill="#007AFF"/>
<path opacity="0.952" fill-rule="evenodd" clip-rule="evenodd" d="M1623.78 430C1628.45 430 1633.11 430 1637.78 430C1637.33 454.377 1637.83 478.71 1639.28 503C1642.65 514.62 1650.49 520.287 1662.78 520C1678.82 519.46 1686.99 511.127 1687.28 495C1687.78 473.336 1687.95 451.669 1687.78 430C1692.45 430 1697.11 430 1701.78 430C1701.95 453.002 1701.78 476.002 1701.28 499C1699.23 522.456 1686.4 533.456 1662.78 532C1639.97 533.865 1627.14 523.531 1624.28 501C1623.78 477.336 1623.61 453.669 1623.78 430Z" fill="#007AFF"/>
<path opacity="0.923" fill-rule="evenodd" clip-rule="evenodd" d="M1836.78 436C1843.88 434.282 1851.21 433.282 1858.78 433C1858.78 465.333 1858.78 497.667 1858.78 530C1854.11 530 1849.45 530 1844.78 530C1844.95 503.665 1844.78 477.331 1844.28 451C1835.08 476.925 1826.08 502.925 1817.28 529C1812.61 530.333 1807.95 530.333 1803.28 529C1794.48 502.259 1785.48 475.593 1776.28 449C1775.78 475.998 1775.61 502.998 1775.78 530C1771.11 530 1766.45 530 1761.78 530C1761.78 496.667 1761.78 463.333 1761.78 430C1769.14 429.669 1776.48 430.003 1783.78 431C1792.85 458.048 1802.02 485.048 1811.28 512C1819.69 486.606 1828.19 461.273 1836.78 436Z" fill="#017BFE"/>
<path opacity="0.982" fill-rule="evenodd" clip-rule="evenodd" d="M1576.78 98C1674.11 98 1771.45 98 1868.78 98C1868.95 126.669 1868.78 155.335 1868.28 184C1845.07 204.209 1821.57 224.042 1797.78 243.5C1757.16 241.138 1716.49 239.138 1675.78 237.5C1696.78 219.833 1717.78 202.167 1738.78 184.5C1684.78 184 1630.78 183.833 1576.78 184C1576.78 155.333 1576.78 126.667 1576.78 98Z" fill="#007AFF"/>
<path opacity="0.965" fill-rule="evenodd" clip-rule="evenodd" d="M1651.78 257C1693.19 256.968 1734.52 258.635 1775.78 262C1764.26 272.021 1752.59 281.855 1740.78 291.5C1698.46 290.59 1656.13 289.59 1613.78 288.5C1626.7 278.22 1639.37 267.72 1651.78 257Z" fill="#007AFF"/>
<path opacity="0.968" fill-rule="evenodd" clip-rule="evenodd" d="M1844.78 318C1843.57 328.951 1840.57 339.285 1835.78 349C1748.29 341.272 1660.62 338.272 1572.78 340C1572.61 334.324 1572.78 328.657 1573.28 323C1578.45 318.5 1583.61 314 1588.78 309.5C1631.81 307.734 1674.81 308.234 1717.78 311C1715.3 312.983 1712.96 315.15 1710.78 317.5C1755.45 318 1800.11 318.167 1844.78 318Z" fill="#007BFE"/>
<path opacity="0.978" fill-rule="evenodd" clip-rule="evenodd" d="M1823.78 367C1814.81 377.307 1805.47 387.307 1795.78 397C1721.53 391.356 1647.19 389.689 1572.78 392C1572.78 381 1572.78 370 1572.78 359C1656.6 357.294 1740.26 359.961 1823.78 367Z" fill="#007BFE"/>
<path opacity="0.993" fill-rule="evenodd" clip-rule="evenodd" d="M1286.78 98C1322.78 98 1358.78 98 1394.78 98C1394.78 148.333 1394.78 198.667 1394.78 249C1358.72 252.488 1322.72 256.488 1286.78 261C1286.78 206.667 1286.78 152.333 1286.78 98Z" fill="#007AFF"/>
<path opacity="0.975" fill-rule="evenodd" clip-rule="evenodd" d="M1389.78 268C1391.45 268 1393.11 268 1394.78 268C1394.78 279 1394.78 290 1394.78 301C1358.67 304.049 1322.67 308.049 1286.78 313C1286.78 302 1286.78 291 1286.78 280C1321.24 275.839 1355.57 271.839 1389.78 268Z" fill="#007AFF"/>
<path opacity="0.973" fill-rule="evenodd" clip-rule="evenodd" d="M1396.78 319C1447.78 319 1498.78 319 1549.78 319C1549.78 326.333 1549.78 333.667 1549.78 341C1461.77 344.244 1374.1 351.577 1286.78 363C1286.78 352.667 1286.78 342.333 1286.78 332C1323.53 327.214 1360.2 322.88 1396.78 319Z" fill="#007AFF"/>
<path opacity="0.969" fill-rule="evenodd" clip-rule="evenodd" d="M1538.78 360C1542.45 360 1546.11 360 1549.78 360C1549.78 370.667 1549.78 381.333 1549.78 392C1493.67 394.174 1437.67 398.007 1381.78 403.5C1366.78 403.833 1351.78 404.167 1336.78 404.5C1332.11 410.5 1327.45 416.5 1322.78 422.5C1318.45 423.167 1314.11 423.167 1309.78 422.5C1312.87 416.491 1315.54 410.324 1317.78 404C1307.45 404 1297.11 404 1286.78 404C1286.78 396.667 1286.78 389.333 1286.78 382C1370.63 371.225 1454.63 363.892 1538.78 360Z" fill="#007AFF"/>
<path opacity="0.99" fill-rule="evenodd" clip-rule="evenodd" d="M385.783 99C462.783 99 539.783 99 616.783 99C616.783 127.667 616.783 156.333 616.783 185C552.783 184.333 488.783 184 424.783 184C424.783 224 424.783 264 424.783 304C390.073 300.773 355.403 297.106 320.783 293C320.613 249.332 320.783 205.665 321.283 162C325.183 122.934 346.683 101.934 385.783 99Z" fill="#007AFF"/>
<path opacity="0.974" fill-rule="evenodd" clip-rule="evenodd" d="M320.782 312C418.422 324.248 516.422 332.081 614.782 335.5C616.742 346.077 617.412 356.91 616.782 368C518.062 365.035 419.732 357.201 321.782 344.5C320.792 333.748 320.462 322.915 320.782 312Z" fill="#007AFF"/>
<path opacity="0.965" fill-rule="evenodd" clip-rule="evenodd" d="M409.781 405C392.981 402.551 375.981 400.551 358.781 399C341.601 393.317 330.261 381.817 324.781 364.5C421.741 376.356 519.071 383.856 616.781 387C616.781 393 616.781 399 616.781 405C547.781 405 478.781 405 409.781 405Z" fill="#017BFF"/>
<path opacity="0.929" fill-rule="evenodd" clip-rule="evenodd" d="M958.781 98C993.451 98 1028.11 98 1062.78 98C1062.78 164 1062.78 230 1062.78 296C1028.19 300.398 993.531 304.065 958.781 307C958.781 237.333 958.781 167.667 958.781 98Z" fill="#007AFF"/>
<path opacity="0.93" fill-rule="evenodd" clip-rule="evenodd" d="M1164.78 98C1199.45 98 1234.11 98 1268.78 98C1268.78 153.333 1268.78 208.667 1268.78 264C1233.97 268.801 1199.31 274.468 1164.78 281C1164.78 220 1164.78 159 1164.78 98Z" fill="#007AFF"/>
<path opacity="0.908" fill-rule="evenodd" clip-rule="evenodd" d="M1262.78 283C1264.78 283 1266.78 283 1268.78 283C1269.1 293.915 1268.77 304.748 1267.78 315.5C1205.26 326.365 1142.59 336.365 1079.78 345.5C1039.86 350.769 999.861 355.269 959.781 359C958.851 348.038 958.511 337.038 958.781 326C993.531 323.125 1028.2 319.458 1062.78 315C1062.78 316.333 1062.78 317.667 1062.78 319C1096.78 319 1130.78 319 1164.78 319C1164.78 312.667 1164.78 306.333 1164.78 300C1197.57 294.305 1230.24 288.638 1262.78 283Z" fill="#007AFF"/>
<path opacity="0.913" fill-rule="evenodd" clip-rule="evenodd" d="M1261.78 335C1264.11 335 1266.45 335 1268.78 335C1269.1 344.717 1268.6 354.384 1267.28 364C1181.03 381.541 1094.03 395.207 1006.28 405C988.161 402.528 974.661 393.361 965.781 377.5C1065.25 367.933 1163.92 353.766 1261.78 335Z" fill="#007AFF"/>
<path opacity="0.811" fill-rule="evenodd" clip-rule="evenodd" d="M1248.78 387C1251.14 386.837 1253.47 387.003 1255.78 387.5C1246.36 396.875 1235.03 402.541 1221.78 404.5C1197.48 406.084 1173.14 406.417 1148.78 405.5C1182.15 399.218 1215.48 393.051 1248.78 387Z" fill="#007AFF"/>
<path opacity="0.989" fill-rule="evenodd" clip-rule="evenodd" d="M625.781 99C660.451 99 695.111 99 729.781 99C729.781 136.667 729.781 174.333 729.781 212C765.451 212 801.111 212 836.781 212C836.781 174.333 836.781 136.667 836.781 99C871.451 99 906.111 99 940.781 99C940.781 169 940.781 239 940.781 309C905.821 311.703 870.821 313.703 835.781 315C835.781 304.333 835.781 293.667 835.781 283C800.451 283 765.111 283 729.781 283C729.781 294.667 729.781 306.333 729.781 318C695.111 318.099 660.441 317.766 625.781 317C625.781 244.333 625.781 171.667 625.781 99Z" fill="#007AFF"/>
<path opacity="0.964" fill-rule="evenodd" clip-rule="evenodd" d="M931.781 328C934.781 328 937.781 328 940.781 328C940.781 339 940.781 350 940.781 361C905.801 363.374 870.801 365.374 835.781 367C835.781 356 835.781 345 835.781 334C868.001 333.07 900.001 331.07 931.781 328Z" fill="#007AFF"/>
<path opacity="0.964" fill-rule="evenodd" clip-rule="evenodd" d="M625.781 336C660.441 336.778 695.111 337.111 729.781 337C729.781 348 729.781 359 729.781 370C695.111 369.882 660.441 369.548 625.781 369C625.781 358 625.781 347 625.781 336Z" fill="#007AFF"/>
<path opacity="0.949" fill-rule="evenodd" clip-rule="evenodd" d="M927.781 380C932.111 380 936.451 380 940.781 380C940.781 388.333 940.781 396.667 940.781 405C905.781 405 870.781 405 835.781 405C835.781 398.667 835.781 392.333 835.781 386C866.661 384.891 897.321 382.891 927.781 380Z" fill="#007AFF"/>
<path opacity="0.944" fill-rule="evenodd" clip-rule="evenodd" d="M625.781 388C660.441 388.548 695.111 388.882 729.781 389C729.781 394.333 729.781 399.667 729.781 405C695.111 405 660.451 405 625.781 405C625.781 399.333 625.781 393.667 625.781 388Z" fill="#007AFF"/>
<path d="M56.6374 98.0852C44.5334 98.8362 33.5042 102.864 23.9677 110.023C12.93 118.309 5.07393 130.144 1.7899 143.431C1.00515 146.588 0.51894 149.532 0.152152 153.295C0.0753828 154.106 0.041263 163.424 0.0242032 192.599C-0.00138666 230.025 -0.00138666 230.845 0.160682 230.887C0.288631 230.913 0.331281 231.041 0.373931 231.51C0.48482 232.56 0.843077 234.881 1.11604 236.297C1.32075 237.355 1.41458 237.688 1.52547 237.722C1.60224 237.748 3.59825 238.192 5.96957 238.712C103.126 260.122 199.369 276.924 297.523 289.604C303.016 290.321 312.621 291.524 313.005 291.55L313.346 291.575L313.389 284.578C313.423 280.414 313.491 276.685 313.559 275.379C313.789 271.044 313.389 265.959 312.442 261.282C311.367 255.975 309.789 251.384 307.332 246.435C302.683 237.048 295.621 229.044 286.86 223.207C278.305 217.507 268.905 214.256 258.422 213.369C256.4 213.198 255.914 213.198 178.948 213.198H101.505V196.132V179.065H195.164H288.822V138.533V97.9999H177.805C66.8477 97.9999 66.788 97.9999 66.788 98.1706C66.788 98.3839 66.7113 98.3839 64.8688 98.2132C63.2055 98.0596 58.3349 97.9828 56.6374 98.0852Z" fill="#027BFE"/>
<path d="M12.5391 261.462C12.5391 261.513 14.2024 263.519 15.0383 264.474C20.4037 270.567 27.3044 275.721 34.6742 279.151C40.9523 282.061 47.2388 283.751 54.677 284.51C55.9735 284.647 59.0443 284.655 93.3176 284.672C113.798 284.681 130.491 284.672 130.423 284.655C130.355 284.638 128.359 284.28 125.987 283.853C91.6798 277.701 45.7376 268.63 13.5029 261.641C12.9741 261.53 12.5391 261.445 12.5391 261.462Z" fill="#027BFE"/>
<path d="M211.882 308.557V318.839L178.684 318.856L145.477 318.882L149.272 319.547C194.925 327.603 238.171 334.318 282.894 340.3C294.571 341.862 312.646 344.183 313.158 344.183H313.388L313.371 328.294L313.346 312.405L309.422 311.91C276.94 307.797 246.138 303.505 216.232 298.906C213.955 298.564 212.053 298.274 211.993 298.274C211.908 298.274 211.882 300.348 211.882 308.557Z" fill="#027BFE"/>
<path d="M0 328.9V338.952L0.409437 339.063C0.631215 339.131 0.827404 339.199 0.852994 339.233C0.912703 339.319 16.4031 342.715 28.6179 345.335C114.156 363.655 200.581 378.631 286.896 390.091L291.408 390.688L291.929 390.245C294.931 387.685 297.993 384.536 300.288 381.66C304.033 376.959 306.864 372.078 309.133 366.412L309.884 364.534L309.654 364.475C309.526 364.44 306.856 364.082 303.708 363.681C277.991 360.37 246.455 355.907 218.068 351.555C159.041 342.502 98.1028 331.647 40.8243 319.983L35.1945 318.839H17.5973H0V328.9Z" fill="#027BFE"/>
<path d="M0 375.32V390.304L0.878584 390.501C2.1666 390.774 35.9963 397.284 61.7312 402.208L71.1311 404L154.324 403.983C233.592 403.957 237.473 403.949 236.578 403.812C236.066 403.727 232.799 403.241 229.327 402.72C154.895 391.584 77.2215 377.266 4.35027 361.249C2.40544 360.822 0.631215 360.438 0.409437 360.404L0 360.336V375.32Z" fill="#027BFE"/>
</svg>
