<svg width="4505" height="556" viewBox="0 0 4505 556" fill="none" xmlns="http://www.w3.org/2000/svg">
<path opacity="0.958" fill-rule="evenodd" clip-rule="evenodd" d="M0 362.855C134.917 391.834 271.06 413.092 408.431 426.63C651.724 450.706 894.163 444.073 1135.75 406.731C1273.17 380.664 1411.81 365.739 1551.64 361.957C1727.66 356.719 1901.61 373.026 2073.5 410.879V388.996C1993.48 371.715 1912.72 359.054 1831.23 351.013C1628.83 332.718 1427.18 339.019 1226.29 369.917C1103.94 393.461 980.566 408.718 856.164 415.685C617.62 427.73 380.82 412.474 145.761 369.917C96.965 360.741 48.3778 351.482 0 342.138V362.855ZM0 312.148C159.274 347.229 320.292 370.796 483.053 382.852C700.956 399.076 917.858 390.453 1133.76 356.983C1245.95 335.786 1359.05 321.857 1473.04 315.194C1675.29 302.608 1875.45 317.591 2073.5 360.144V339.46C1983.74 319.591 1893.03 305.863 1801.38 298.28C1608.2 283.406 1415.83 290.702 1224.3 320.169C1050.77 353.409 875.656 370.157 698.96 370.415C463.143 368.774 230.157 342.279 0 290.929V312.148Z" fill="#007BFF"/>
<path opacity="0.96" fill-rule="evenodd" clip-rule="evenodd" d="M0 263.358C110.079 286.96 221.017 305.565 332.814 319.176C632.78 356.465 931.268 347.179 1228.28 291.317C1326.61 276.642 1425.44 267.355 1524.78 263.458C1709.79 255.81 1892.7 271.822 2073.5 311.495V289.427C1992.81 272.195 1911.39 259.558 1829.24 251.518C1627.85 233.433 1427.19 239.735 1227.28 270.422C1083.62 298.03 938.694 314.28 792.486 319.176C525.088 326.167 260.926 300.244 0 241.408V263.358Z" fill="#007AFF"/>
<path opacity="0.972" fill-rule="evenodd" clip-rule="evenodd" d="M0 210.652C156.068 244.768 313.77 268.008 473.103 280.372C698.041 297.883 921.908 288.928 1144.7 253.508C1246.72 234.25 1349.53 221.316 1453.14 214.704C1662.06 199.826 1868.86 214.477 2073.5 258.657V237.865C1960.94 212.835 1847.01 197.486 1731.73 191.82C1563.41 183.944 1395.92 192.566 1229.27 217.689C1031.42 255.79 831.755 272.373 630.307 267.437C417.715 261.514 207.612 235.48 0 189.333V210.652Z" fill="#007BFF"/>
<path opacity="0.986" fill-rule="evenodd" clip-rule="evenodd" d="M4165.78 0C4169.45 0 4173.11 0 4176.78 0C4217.55 8.80877 4249.72 30.4754 4273.28 65C4301.46 105.332 4327.12 147.332 4350.28 191C4355.29 202.176 4356.96 213.842 4355.28 226C4352.52 230.267 4348.52 232.267 4343.28 232C4334.83 230.527 4327.33 227.027 4320.78 221.5C4300.49 204.875 4280.49 187.875 4260.78 170.5C4216.51 135.402 4166.01 116.236 4109.28 113C4065.81 116.601 4025.31 129.435 3987.78 151.5C3986.78 152.167 3985.78 152.167 3984.78 151.5C3991.49 130.371 4000.32 110.204 4011.28 91C4014.66 86.7407 4018.16 82.5741 4021.78 78.5C4045.87 58.2847 4071.54 40.2847 4098.78 24.5C4119.8 12.3019 4142.14 4.13522 4165.78 0Z" fill="#FEDF00"/>
<path opacity="0.992" fill-rule="evenodd" clip-rule="evenodd" d="M4504.78 268C4504.78 278.333 4504.78 288.667 4504.78 299C4502.83 317.261 4498.99 335.261 4493.28 353C4490.85 360.374 4487.01 366.874 4481.78 372.5C4480.61 372.667 4479.45 372.833 4478.28 373C4465.7 369.583 4453.87 364.417 4442.78 357.5C4423.73 346.309 4405.73 333.643 4388.78 319.5C4362.73 299.8 4340.57 303.3 4322.28 330C4310.78 351.678 4297.78 372.345 4283.28 392C4240.61 444.926 4185.11 474.093 4116.78 479.5C4091.05 483.106 4065.39 482.772 4039.78 478.5C4019.55 473.422 4000.55 465.422 3982.78 454.5C3971.45 447.5 3960.11 440.5 3948.78 433.5C3946.86 432.692 3944.86 432.192 3942.78 432C3939.48 432.71 3936.15 433.043 3932.78 433C3925.21 433.282 3917.88 434.282 3910.78 436C3903.77 436.166 3896.77 436 3889.78 435.5C3879.01 435.645 3873.01 430.478 3871.78 420C3865.12 417.187 3862.95 412.187 3865.28 405C3866.54 402.144 3868.04 399.477 3869.78 397C3879.47 387.307 3888.81 377.307 3897.78 367C3902.76 361.725 3906.76 355.725 3909.78 349C3914.57 339.285 3917.57 328.951 3918.78 318C3919.31 308.34 3919.81 298.673 3920.28 289C3920.71 273.344 3926.38 260.011 3937.28 249C3948.53 226.827 3961.53 205.827 3976.28 186C3988.96 171.405 4004.46 160.905 4022.78 154.5C4046.77 143.726 4071.77 136.393 4097.78 132.5C4141.2 130.521 4181.86 140.187 4219.78 161.5C4230.38 167.773 4240.72 174.439 4250.78 181.5C4273.3 199.929 4295.63 218.595 4317.78 237.5C4321.95 240.417 4326.28 243.084 4330.78 245.5C4340.32 249.7 4348.99 248.367 4356.78 241.5C4379.36 217.595 4401.19 193.095 4422.28 168C4430.14 159.802 4438.31 151.969 4446.78 144.5C4449.72 142.075 4453.05 141.075 4456.78 141.5C4461.23 146.563 4465.06 152.063 4468.28 158C4486.19 192.891 4498.35 229.557 4504.78 268ZM4027.78 380C4037.53 382.541 4046.53 386.707 4054.78 392.5C4063.05 401.59 4070.71 411.09 4077.78 421C4099.42 402.073 4113.08 378.406 4118.78 350C4115.65 348.478 4112.32 347.645 4108.78 347.5C4096.69 346.595 4084.69 347.262 4072.78 349.5C4065.07 351.572 4057.4 353.739 4049.78 356C4071.12 337.837 4095.78 330.671 4123.78 334.5C4131.45 337.518 4135.12 343.184 4134.78 351.5C4131.17 384.07 4116.83 410.737 4091.78 431.5C4085.52 435.878 4079.36 440.378 4073.28 445C4065.28 429.667 4057.28 414.333 4049.28 399C4042.81 391.686 4035.64 385.352 4027.78 380Z" fill="#FEDE01"/>
<path opacity="0.984" fill-rule="evenodd" clip-rule="evenodd" d="M4353.78 325C4356.78 325 4359.78 325 4362.78 325C4365.54 349.343 4365.37 373.676 4362.28 398C4357.58 420.142 4352.24 442.142 4346.28 464C4340.59 489.372 4329.59 512.039 4313.28 532C4289.39 554.93 4261.56 561.43 4229.78 551.5C4196.74 539.494 4167.41 521.661 4141.78 498C4171.37 491.747 4199.37 481.247 4225.78 466.5C4258.32 444.955 4285.16 417.789 4306.28 385C4315.03 369.834 4324.03 354.834 4333.28 340C4338.66 332.748 4345.5 327.748 4353.78 325Z" fill="#FEDF00"/>
<path opacity="0.954" fill-rule="evenodd" clip-rule="evenodd" d="M4123.78 496C4137.33 513.719 4153.33 528.886 4171.78 541.5C4139.26 543.716 4108.93 536.716 4080.78 520.5C4069.61 513.75 4058.61 506.75 4047.78 499.5C4062.43 499.944 4077.1 499.944 4091.78 499.5C4102.67 499.046 4113.34 497.879 4123.78 496Z" fill="#FEDF00"/>
<path opacity="0.935" fill-rule="evenodd" clip-rule="evenodd" d="M2268.78 428C2305.92 425.469 2325.58 442.803 2327.78 480C2325.61 517.344 2305.94 534.51 2268.78 531.5C2249.31 526.693 2237.14 514.527 2232.28 495C2227.05 472.061 2232.88 452.561 2249.78 436.5C2255.73 432.581 2262.07 429.748 2268.78 428ZM2272.78 440C2295.33 439.047 2308.5 449.714 2312.28 472C2315.17 489.004 2310.34 503.171 2297.78 514.5C2286.01 521.429 2274.01 521.762 2261.78 515.5C2253.19 509.165 2248.02 500.665 2246.28 490C2244.18 477.279 2246.18 465.279 2252.28 454C2257.4 446.699 2264.23 442.033 2272.78 440Z" fill="#007AFF"/>
<path opacity="0.931" fill-rule="evenodd" clip-rule="evenodd" d="M2536.78 428C2549.57 426.335 2561.57 428.502 2572.78 434.5C2580.09 440.628 2584.09 448.461 2584.78 458C2580.89 458.264 2577.05 458.931 2573.28 460C2572.45 459.667 2571.61 459.333 2570.78 459C2566.57 443.652 2556.57 437.485 2540.78 440.5C2528.36 443.205 2524.19 450.372 2528.28 462C2529.69 463.287 2531.19 464.454 2532.78 465.5C2545.11 469.167 2557.45 472.833 2569.78 476.5C2587.18 484.863 2592.01 498.03 2584.28 516C2578.96 524.249 2571.46 529.416 2561.78 531.5C2550.53 532.868 2539.53 531.868 2528.78 528.5C2516.33 522.198 2509.66 512.031 2508.78 498C2513.22 497.474 2517.55 496.474 2521.78 495C2526.6 516.088 2539.6 523.921 2560.78 518.5C2574.77 513.167 2577.43 504.5 2568.78 492.5C2564.05 489.922 2559.05 487.922 2553.78 486.5C2542.97 484.565 2532.64 481.231 2522.78 476.5C2513.15 468.837 2509.98 459.004 2513.28 447C2518.05 436.72 2525.88 430.386 2536.78 428Z" fill="#007AFF"/>
<path opacity="0.924" fill-rule="evenodd" clip-rule="evenodd" d="M2077.78 430C2085.14 429.669 2092.48 430.003 2099.78 431C2108.85 458.048 2118.02 485.048 2127.28 512C2136.36 484.595 2145.53 457.261 2154.78 430C2161.45 430 2168.11 430 2174.78 430C2174.78 463.333 2174.78 496.667 2174.78 530C2170.11 530 2165.45 530 2160.78 530C2160.95 503.665 2160.78 477.331 2160.28 451C2151.08 476.925 2142.08 502.925 2133.28 529C2128.61 530.333 2123.95 530.333 2119.28 529C2110.48 502.259 2101.48 475.593 2092.28 449C2091.78 475.998 2091.61 502.998 2091.78 530C2087.11 530 2082.45 530 2077.78 530C2077.78 496.667 2077.78 463.333 2077.78 430Z" fill="#007AFF"/>
<path opacity="0.933" fill-rule="evenodd" clip-rule="evenodd" d="M2383.78 429.999C2401.84 429.553 2419.84 430.053 2437.78 431.499C2450.35 435.785 2456.68 444.62 2456.78 458C2456.03 471.923 2449.03 481.09 2435.78 485.5C2438.95 487.333 2441.45 489.833 2443.28 493C2449.7 504.843 2455.87 516.842 2461.78 528.999C2456.48 530.162 2451.14 530.328 2445.78 529.499C2441.42 520.286 2436.92 511.12 2432.28 501.999C2424.74 489.32 2413.58 484.321 2398.78 487C2398.78 501.333 2398.78 515.666 2398.78 529.999C2393.78 529.999 2388.78 529.999 2383.78 529.999C2383.78 496.666 2383.78 463.333 2383.78 429.999ZM2398.78 442C2409.49 441.688 2420.16 442.188 2430.78 443.5C2441.51 448.357 2444.35 456.189 2439.28 467C2434.44 472.616 2428.28 475.116 2420.78 474.5C2413.45 475 2406.12 475.166 2398.78 475C2398.78 464 2398.78 453 2398.78 442Z" fill="#007AFF"/>
<path opacity="0.92" fill-rule="evenodd" clip-rule="evenodd" d="M2644.78 430C2649.78 430 2654.78 430 2659.78 430C2659.61 445.004 2659.78 460.004 2660.28 475C2674.48 460.468 2688.31 445.635 2701.78 430.5C2708.11 429.833 2714.45 429.833 2720.78 430.5C2708.26 443.516 2695.93 456.683 2683.78 470C2696.58 489.969 2709.58 509.802 2722.78 529.5C2716.75 530.33 2710.75 530.164 2704.78 529C2694.28 512.667 2683.78 496.333 2673.28 480C2668.95 484.333 2664.61 488.667 2660.28 493C2659.78 505.329 2659.61 517.662 2659.78 530C2654.78 530 2649.78 530 2644.78 530C2644.78 496.667 2644.78 463.333 2644.78 430Z" fill="#007AFF"/>
<path opacity="0.926" fill-rule="evenodd" clip-rule="evenodd" d="M2804.78 404C2810.82 403.671 2816.82 404.004 2822.78 405C2818.23 410.925 2813.57 416.758 2808.78 422.5C2804.74 423.327 2800.74 423.16 2796.78 422C2800.01 416.214 2802.67 410.214 2804.78 404Z" fill="#007AFF"/>
<path opacity="0.957" fill-rule="evenodd" clip-rule="evenodd" d="M2772.78 430C2794.11 430 2815.45 430 2836.78 430C2836.78 434 2836.78 438 2836.78 442C2820.45 442 2804.11 442 2787.78 442C2787.78 452 2787.78 462 2787.78 472C2803.11 472 2818.45 472 2833.78 472C2833.78 476 2833.78 480 2833.78 484C2818.45 484 2803.11 484 2787.78 484C2787.78 495.333 2787.78 506.667 2787.78 518C2805.11 518 2822.45 518 2839.78 518C2839.78 522 2839.78 526 2839.78 530C2817.45 530 2795.11 530 2772.78 530C2772.78 496.667 2772.78 463.333 2772.78 430Z" fill="#007AFF"/>
<path opacity="0.941" fill-rule="evenodd" clip-rule="evenodd" d="M3001.78 430C3007.45 430 3013.11 430 3018.78 430C3031.42 463.427 3044.76 496.594 3058.78 529.5C3053.2 530.306 3047.7 530.139 3042.28 529C3038.47 519.413 3034.97 509.746 3031.78 500C3017.78 500 3003.78 500 2989.78 500C2986.64 510.074 2983.31 520.074 2979.78 530C2974.78 530 2969.78 530 2964.78 530C2977.11 496.667 2989.45 463.333 3001.78 430ZM3009.78 443C3014.83 458.123 3020.49 473.123 3026.78 488C3016.13 488.999 3005.47 489.332 2994.78 489C3000.35 473.864 3005.35 458.53 3009.78 443Z" fill="#007AFF"/>
<path opacity="0.92" fill-rule="evenodd" clip-rule="evenodd" d="M3107.78 430C3112.78 430 3117.78 430 3122.78 430C3122.61 445.004 3122.78 460.004 3123.28 475C3137.48 460.468 3151.31 445.635 3164.78 430.5C3171.11 429.833 3177.45 429.833 3183.78 430.5C3171.26 443.516 3158.93 456.683 3146.78 470C3159.58 489.969 3172.58 509.802 3185.78 529.5C3179.75 530.33 3173.75 530.164 3167.78 529C3157.28 512.667 3146.78 496.333 3136.28 480C3131.95 484.333 3127.61 488.667 3123.28 493C3122.78 505.329 3122.61 517.662 3122.78 530C3117.78 530 3112.78 530 3107.78 530C3107.78 496.667 3107.78 463.333 3107.78 430Z" fill="#007AFF"/>
<path opacity="0.932" fill-rule="evenodd" clip-rule="evenodd" d="M3225.78 430C3231.11 430 3236.45 430 3241.78 430C3251.77 458.135 3261.27 486.469 3270.28 515C3279.83 486.903 3289.66 458.903 3299.78 431C3305.08 429.837 3310.42 429.671 3315.78 430.5C3302.89 463.161 3290.39 495.994 3278.28 529C3272.95 530.333 3267.61 530.333 3262.28 529C3249.81 496.092 3237.64 463.092 3225.78 430Z" fill="#007AFF"/>
<path opacity="0.94" fill-rule="evenodd" clip-rule="evenodd" d="M3384.78 430C3390.37 429.693 3395.87 430.027 3401.28 431C3414.65 463.905 3428.15 496.739 3441.78 529.5C3436.2 530.306 3430.7 530.139 3425.28 529C3421.58 519.428 3417.74 509.928 3413.78 500.5C3400.12 500 3386.45 499.833 3372.78 500C3369.45 510 3366.11 520 3362.78 530C3357.44 530.166 3352.1 529.999 3346.78 529.5C3360.14 496.588 3372.81 463.421 3384.78 430ZM3392.78 443C3397.93 458.267 3403.59 473.434 3409.78 488.5C3399.12 489 3388.45 489.167 3377.78 489C3383.18 473.802 3388.18 458.469 3392.78 443Z" fill="#007AFF"/>
<path opacity="0.933" fill-rule="evenodd" clip-rule="evenodd" d="M3491.78 429.999C3509.84 429.553 3527.84 430.053 3545.78 431.499C3558.35 435.785 3564.68 444.62 3564.78 458C3564.03 471.923 3557.03 481.09 3543.78 485.5C3546.95 487.333 3549.45 489.833 3551.28 493C3557.7 504.843 3563.87 516.842 3569.78 528.999C3564.48 530.162 3559.14 530.328 3553.78 529.499C3549.42 520.286 3544.92 511.12 3540.28 501.999C3532.74 489.32 3521.58 484.321 3506.78 487C3506.78 501.333 3506.78 515.666 3506.78 529.999C3501.78 529.999 3496.78 529.999 3491.78 529.999C3491.78 496.666 3491.78 463.333 3491.78 429.999ZM3506.78 442C3517.49 441.688 3528.16 442.188 3538.78 443.5C3549.51 448.357 3552.35 456.189 3547.28 467C3542.44 472.616 3536.28 475.116 3528.78 474.5C3521.45 475 3514.12 475.166 3506.78 475C3506.78 464 3506.78 453 3506.78 442Z" fill="#007AFF"/>
<path opacity="0.917" fill-rule="evenodd" clip-rule="evenodd" d="M3622.78 430C3627.78 430 3632.78 430 3637.78 430C3637.78 463.333 3637.78 496.667 3637.78 530C3632.78 530 3627.78 530 3622.78 530C3622.78 496.667 3622.78 463.333 3622.78 430Z" fill="#007AFF"/>
<path opacity="0.952" fill-rule="evenodd" clip-rule="evenodd" d="M3697.78 430C3702.45 430 3707.11 430 3711.78 430C3711.33 454.377 3711.83 478.71 3713.28 503C3716.65 514.62 3724.49 520.287 3736.78 520C3752.82 519.46 3760.99 511.127 3761.28 495C3761.78 473.336 3761.95 451.669 3761.78 430C3766.45 430 3771.11 430 3775.78 430C3775.95 453.002 3775.78 476.002 3775.28 499C3773.23 522.456 3760.4 533.456 3736.78 532C3713.97 533.865 3701.14 523.531 3698.28 501C3697.78 477.336 3697.61 453.669 3697.78 430Z" fill="#007AFF"/>
<path opacity="0.923" fill-rule="evenodd" clip-rule="evenodd" d="M3910.78 436C3917.88 434.282 3925.21 433.282 3932.78 433C3932.78 465.333 3932.78 497.667 3932.78 530C3928.11 530 3923.45 530 3918.78 530C3918.95 503.665 3918.78 477.331 3918.28 451C3909.08 476.925 3900.08 502.925 3891.28 529C3886.61 530.333 3881.95 530.333 3877.28 529C3868.48 502.259 3859.48 475.593 3850.28 449C3849.78 475.998 3849.61 502.998 3849.78 530C3845.11 530 3840.45 530 3835.78 530C3835.78 496.667 3835.78 463.333 3835.78 430C3843.14 429.669 3850.48 430.003 3857.78 431C3866.85 458.048 3876.02 485.048 3885.28 512C3893.69 486.606 3902.19 461.273 3910.78 436Z" fill="#017BFE"/>
<path opacity="0.982" fill-rule="evenodd" clip-rule="evenodd" d="M3650.78 98C3748.11 98 3845.45 98 3942.78 98C3942.95 126.669 3942.78 155.335 3942.28 184C3919.07 204.209 3895.57 224.042 3871.78 243.5C3831.16 241.138 3790.49 239.138 3749.78 237.5C3770.78 219.833 3791.78 202.167 3812.78 184.5C3758.78 184 3704.78 183.833 3650.78 184C3650.78 155.333 3650.78 126.667 3650.78 98Z" fill="#007AFF"/>
<path opacity="0.965" fill-rule="evenodd" clip-rule="evenodd" d="M3725.78 257C3767.19 256.968 3808.52 258.635 3849.78 262C3838.26 272.021 3826.59 281.855 3814.78 291.5C3772.46 290.59 3730.13 289.59 3687.78 288.5C3700.7 278.22 3713.37 267.72 3725.78 257Z" fill="#007AFF"/>
<path opacity="0.968" fill-rule="evenodd" clip-rule="evenodd" d="M3918.78 318C3917.57 328.951 3914.57 339.285 3909.78 349C3822.29 341.272 3734.62 338.272 3646.78 340C3646.61 334.324 3646.78 328.657 3647.28 323C3652.45 318.5 3657.61 314 3662.78 309.5C3705.81 307.734 3748.81 308.234 3791.78 311C3789.3 312.983 3786.96 315.15 3784.78 317.5C3829.45 318 3874.11 318.167 3918.78 318Z" fill="#007BFE"/>
<path opacity="0.978" fill-rule="evenodd" clip-rule="evenodd" d="M3897.78 367C3888.81 377.307 3879.47 387.307 3869.78 397C3795.53 391.356 3721.19 389.689 3646.78 392C3646.78 381 3646.78 370 3646.78 359C3730.6 357.294 3814.26 359.961 3897.78 367Z" fill="#007BFE"/>
<path opacity="0.993" fill-rule="evenodd" clip-rule="evenodd" d="M3360.78 98C3396.78 98 3432.78 98 3468.78 98C3468.78 148.333 3468.78 198.667 3468.78 249C3432.72 252.488 3396.72 256.488 3360.78 261C3360.78 206.667 3360.78 152.333 3360.78 98Z" fill="#007AFF"/>
<path opacity="0.975" fill-rule="evenodd" clip-rule="evenodd" d="M3463.78 268C3465.45 268 3467.11 268 3468.78 268C3468.78 279 3468.78 290 3468.78 301C3432.67 304.049 3396.67 308.049 3360.78 313C3360.78 302 3360.78 291 3360.78 280C3395.24 275.839 3429.57 271.839 3463.78 268Z" fill="#007AFF"/>
<path opacity="0.973" fill-rule="evenodd" clip-rule="evenodd" d="M3470.78 319C3521.78 319 3572.78 319 3623.78 319C3623.78 326.333 3623.78 333.667 3623.78 341C3535.77 344.244 3448.1 351.577 3360.78 363C3360.78 352.667 3360.78 342.333 3360.78 332C3397.53 327.214 3434.2 322.88 3470.78 319Z" fill="#007AFF"/>
<path opacity="0.969" fill-rule="evenodd" clip-rule="evenodd" d="M3612.78 360C3616.45 360 3620.11 360 3623.78 360C3623.78 370.667 3623.78 381.333 3623.78 392C3567.67 394.174 3511.67 398.007 3455.78 403.5C3440.78 403.833 3425.78 404.167 3410.78 404.5C3406.11 410.5 3401.45 416.5 3396.78 422.5C3392.45 423.167 3388.11 423.167 3383.78 422.5C3386.87 416.491 3389.54 410.324 3391.78 404C3381.45 404 3371.11 404 3360.78 404C3360.78 396.667 3360.78 389.333 3360.78 382C3444.63 371.225 3528.63 363.892 3612.78 360Z" fill="#007AFF"/>
<path opacity="0.99" fill-rule="evenodd" clip-rule="evenodd" d="M2459.78 99C2536.78 99 2613.78 99 2690.78 99C2690.78 127.667 2690.78 156.333 2690.78 185C2626.78 184.333 2562.78 184 2498.78 184C2498.78 224 2498.78 264 2498.78 304C2464.07 300.773 2429.4 297.106 2394.78 293C2394.61 249.332 2394.78 205.665 2395.28 162C2399.18 122.934 2420.68 101.934 2459.78 99Z" fill="#007AFF"/>
<path opacity="0.974" fill-rule="evenodd" clip-rule="evenodd" d="M2394.78 312C2492.42 324.248 2590.42 332.081 2688.78 335.5C2690.74 346.077 2691.41 356.91 2690.78 368C2592.06 365.035 2493.73 357.201 2395.78 344.5C2394.79 333.748 2394.46 322.915 2394.78 312Z" fill="#007AFF"/>
<path opacity="0.965" fill-rule="evenodd" clip-rule="evenodd" d="M2483.78 405C2466.98 402.551 2449.98 400.551 2432.78 399C2415.6 393.317 2404.26 381.817 2398.78 364.5C2495.74 376.356 2593.07 383.856 2690.78 387C2690.78 393 2690.78 399 2690.78 405C2621.78 405 2552.78 405 2483.78 405Z" fill="#017BFF"/>
<path opacity="0.929" fill-rule="evenodd" clip-rule="evenodd" d="M3032.78 98C3067.45 98 3102.11 98 3136.78 98C3136.78 164 3136.78 230 3136.78 296C3102.19 300.398 3067.53 304.065 3032.78 307C3032.78 237.333 3032.78 167.667 3032.78 98Z" fill="#007AFF"/>
<path opacity="0.93" fill-rule="evenodd" clip-rule="evenodd" d="M3238.78 98C3273.45 98 3308.11 98 3342.78 98C3342.78 153.333 3342.78 208.667 3342.78 264C3307.97 268.801 3273.31 274.468 3238.78 281C3238.78 220 3238.78 159 3238.78 98Z" fill="#007AFF"/>
<path opacity="0.908" fill-rule="evenodd" clip-rule="evenodd" d="M3336.78 283C3338.78 283 3340.78 283 3342.78 283C3343.1 293.915 3342.77 304.748 3341.78 315.5C3279.26 326.365 3216.59 336.365 3153.78 345.5C3113.86 350.769 3073.86 355.269 3033.78 359C3032.85 348.038 3032.51 337.038 3032.78 326C3067.53 323.125 3102.2 319.458 3136.78 315C3136.78 316.333 3136.78 317.667 3136.78 319C3170.78 319 3204.78 319 3238.78 319C3238.78 312.667 3238.78 306.333 3238.78 300C3271.57 294.305 3304.24 288.638 3336.78 283Z" fill="#007AFF"/>
<path opacity="0.913" fill-rule="evenodd" clip-rule="evenodd" d="M3335.78 335C3338.11 335 3340.45 335 3342.78 335C3343.1 344.717 3342.6 354.384 3341.28 364C3255.03 381.541 3168.03 395.207 3080.28 405C3062.16 402.528 3048.66 393.361 3039.78 377.5C3139.25 367.933 3237.92 353.766 3335.78 335Z" fill="#007AFF"/>
<path opacity="0.811" fill-rule="evenodd" clip-rule="evenodd" d="M3322.78 387C3325.14 386.837 3327.47 387.003 3329.78 387.5C3320.36 396.875 3309.03 402.541 3295.78 404.5C3271.48 406.084 3247.14 406.417 3222.78 405.5C3256.15 399.218 3289.48 393.051 3322.78 387Z" fill="#007AFF"/>
<path opacity="0.989" fill-rule="evenodd" clip-rule="evenodd" d="M2699.78 99C2734.45 99 2769.11 99 2803.78 99C2803.78 136.667 2803.78 174.333 2803.78 212C2839.45 212 2875.11 212 2910.78 212C2910.78 174.333 2910.78 136.667 2910.78 99C2945.45 99 2980.11 99 3014.78 99C3014.78 169 3014.78 239 3014.78 309C2979.82 311.703 2944.82 313.703 2909.78 315C2909.78 304.333 2909.78 293.667 2909.78 283C2874.45 283 2839.11 283 2803.78 283C2803.78 294.667 2803.78 306.333 2803.78 318C2769.11 318.099 2734.44 317.766 2699.78 317C2699.78 244.333 2699.78 171.667 2699.78 99Z" fill="#007AFF"/>
<path opacity="0.964" fill-rule="evenodd" clip-rule="evenodd" d="M3005.78 328C3008.78 328 3011.78 328 3014.78 328C3014.78 339 3014.78 350 3014.78 361C2979.8 363.374 2944.8 365.374 2909.78 367C2909.78 356 2909.78 345 2909.78 334C2942 333.07 2974 331.07 3005.78 328Z" fill="#007AFF"/>
<path opacity="0.964" fill-rule="evenodd" clip-rule="evenodd" d="M2699.78 336C2734.44 336.778 2769.11 337.111 2803.78 337C2803.78 348 2803.78 359 2803.78 370C2769.11 369.882 2734.44 369.548 2699.78 369C2699.78 358 2699.78 347 2699.78 336Z" fill="#007AFF"/>
<path opacity="0.949" fill-rule="evenodd" clip-rule="evenodd" d="M3001.78 380C3006.11 380 3010.45 380 3014.78 380C3014.78 388.333 3014.78 396.667 3014.78 405C2979.78 405 2944.78 405 2909.78 405C2909.78 398.667 2909.78 392.333 2909.78 386C2940.66 384.891 2971.32 382.891 3001.78 380Z" fill="#007AFF"/>
<path opacity="0.944" fill-rule="evenodd" clip-rule="evenodd" d="M2699.78 388C2734.44 388.548 2769.11 388.882 2803.78 389C2803.78 394.333 2803.78 399.667 2803.78 405C2769.11 405 2734.45 405 2699.78 405C2699.78 399.333 2699.78 393.667 2699.78 388Z" fill="#007AFF"/>
<path d="M2130.64 98.0852C2118.53 98.8362 2107.5 102.864 2097.97 110.023C2086.93 118.309 2079.07 130.144 2075.79 143.431C2075.01 146.588 2074.52 149.532 2074.15 153.295C2074.08 154.106 2074.04 163.424 2074.02 192.599C2074 230.025 2074 230.845 2074.16 230.887C2074.29 230.913 2074.33 231.041 2074.37 231.51C2074.48 232.56 2074.84 234.881 2075.12 236.297C2075.32 237.355 2075.41 237.688 2075.53 237.722C2075.6 237.748 2077.6 238.192 2079.97 238.712C2177.13 260.122 2273.37 276.924 2371.52 289.604C2377.02 290.321 2386.62 291.524 2387 291.55L2387.35 291.575L2387.39 284.578C2387.42 280.414 2387.49 276.685 2387.56 275.379C2387.79 271.044 2387.39 265.959 2386.44 261.282C2385.37 255.975 2383.79 251.384 2381.33 246.435C2376.68 237.048 2369.62 229.044 2360.86 223.207C2352.3 217.507 2342.9 214.256 2332.42 213.369C2330.4 213.198 2329.91 213.198 2252.95 213.198H2175.5V196.132V179.065H2269.16H2362.82V138.533V97.9999H2251.81C2140.85 97.9999 2140.79 97.9999 2140.79 98.1706C2140.79 98.3839 2140.71 98.3839 2138.87 98.2132C2137.21 98.0596 2132.33 97.9828 2130.64 98.0852Z" fill="#027BFE"/>
<path d="M2086.54 261.462C2086.54 261.513 2088.2 263.519 2089.04 264.474C2094.4 270.567 2101.3 275.721 2108.67 279.151C2114.95 282.061 2121.24 283.751 2128.68 284.51C2129.97 284.647 2133.04 284.655 2167.32 284.672C2187.8 284.681 2204.49 284.672 2204.42 284.655C2204.35 284.638 2202.36 284.28 2199.99 283.853C2165.68 277.701 2119.74 268.63 2087.5 261.641C2086.97 261.53 2086.54 261.445 2086.54 261.462Z" fill="#027BFE"/>
<path d="M2285.88 308.557V318.839L2252.68 318.856L2219.48 318.882L2223.27 319.547C2268.92 327.603 2312.17 334.318 2356.89 340.3C2368.57 341.862 2386.65 344.183 2387.16 344.183H2387.39L2387.37 328.294L2387.35 312.405L2383.42 311.91C2350.94 307.797 2320.14 303.505 2290.23 298.906C2287.95 298.564 2286.05 298.274 2285.99 298.274C2285.91 298.274 2285.88 300.348 2285.88 308.557Z" fill="#027BFE"/>
<path d="M2074 328.9V338.952L2074.41 339.063C2074.63 339.131 2074.83 339.199 2074.85 339.233C2074.91 339.319 2090.4 342.715 2102.62 345.335C2188.16 363.655 2274.58 378.631 2360.9 390.091L2365.41 390.688L2365.93 390.245C2368.93 387.685 2371.99 384.536 2374.29 381.66C2378.03 376.959 2380.86 372.078 2383.13 366.412L2383.88 364.534L2383.65 364.475C2383.53 364.44 2380.86 364.082 2377.71 363.681C2351.99 360.37 2320.46 355.907 2292.07 351.555C2233.04 342.502 2172.1 331.647 2114.82 319.983L2109.19 318.839H2091.6H2074V328.9Z" fill="#027BFE"/>
<path d="M2074 375.32V390.304L2074.88 390.501C2076.17 390.774 2110 397.284 2135.73 402.208L2145.13 404L2228.32 403.983C2307.59 403.957 2311.47 403.949 2310.58 403.812C2310.07 403.727 2306.8 403.241 2303.33 402.72C2228.9 391.584 2151.22 377.266 2078.35 361.249C2076.41 360.822 2074.63 360.438 2074.41 360.404L2074 360.336V375.32Z" fill="#027BFE"/>
</svg>
