<svg width="646" height="560" viewBox="0 0 646 560" fill="none" xmlns="http://www.w3.org/2000/svg">
<g clip-path="url(#clip0_461_1177)">
<path opacity="0.986" fill-rule="evenodd" clip-rule="evenodd" d="M303.318 -0.503906C307.019 -0.503906 310.72 -0.503906 314.421 -0.503906C355.575 8.36824 388.044 30.1907 411.826 64.9637C440.267 105.586 466.174 147.888 489.548 191.87C494.606 203.127 496.288 214.877 494.594 227.122C491.805 231.42 487.767 233.434 482.482 233.165C473.958 231.682 466.388 228.156 459.771 222.59C439.287 205.845 419.099 188.723 399.209 171.223C354.522 135.872 303.548 116.568 246.288 113.309C202.413 116.936 161.533 129.862 123.649 152.086C122.64 152.758 121.63 152.758 120.621 152.086C127.391 130.805 136.307 110.493 147.37 91.1508C150.782 86.8608 154.315 82.6642 157.968 78.5608C182.286 58.2001 208.192 40.0706 235.69 24.1723C256.911 11.8865 279.454 3.66106 303.318 -0.503906Z" fill="#FFDF01"/>
<path opacity="0.992" fill-rule="evenodd" clip-rule="evenodd" d="M645.496 269.424C645.496 279.831 645.496 290.24 645.496 300.647C643.524 319.039 639.655 337.169 633.888 355.036C631.431 362.463 627.562 369.009 622.28 374.676C621.103 374.844 619.926 375.011 618.748 375.179C606.052 371.738 594.107 366.535 582.915 359.568C563.685 348.296 545.516 335.539 528.409 321.295C502.116 301.453 479.743 304.978 461.285 331.87C447.128 359.469 429.968 384.986 409.807 408.417C367.68 453.184 315.697 477.86 253.859 482.446C227.892 486.078 201.985 485.741 176.137 481.438C158.424 476.967 141.601 470.252 125.668 461.295C110.843 452.533 96.0393 443.805 81.2555 435.108C65.9908 436.402 50.6819 437.576 35.3289 438.633C28.6215 438.842 22.0606 438.003 15.6461 436.115C9.60113 433.684 6.573 429.152 6.56172 422.518C3.56525 421.545 1.21004 419.866 -0.503906 417.482C-0.503906 414.125 -0.503906 410.767 -0.503906 407.41C7.36909 394.676 17.2946 383.597 29.2727 374.172C41.2838 360.946 49.0223 345.501 52.4883 327.841C54.2026 312.768 55.5484 297.66 56.5258 282.518C58.1666 269.843 63.5499 259.099 72.6758 250.287C84.027 227.955 97.1489 206.804 112.041 186.834C121.991 175.222 133.935 166.326 147.874 160.144C171.452 148.944 196.014 140.551 221.559 134.964C269.916 129.036 315.338 138.101 357.824 162.158C368.526 168.476 378.956 175.19 389.115 182.302C411.844 200.863 434.387 219.664 456.743 238.705C460.948 241.643 465.322 244.329 469.865 246.762C479.493 250.992 488.242 249.65 496.109 242.733C518.895 218.656 540.934 193.98 562.223 168.705C570.159 160.448 578.403 152.558 586.952 145.036C589.918 142.593 593.283 141.586 597.046 142.014C601.537 147.113 605.407 152.653 608.654 158.633C626.73 193.775 639.011 230.705 645.496 269.424ZM164.024 382.23C173.864 384.789 182.948 388.985 191.277 394.82C199.621 403.975 207.359 413.543 214.493 423.525C236.334 404.462 250.128 380.624 255.877 352.014C252.719 350.481 249.354 349.642 245.784 349.496C233.58 348.585 221.468 349.256 209.446 351.51C201.66 353.597 193.921 355.78 186.23 358.057C207.766 339.764 232.665 332.546 260.924 336.403C268.669 339.442 272.371 345.149 272.027 353.525C268.378 386.329 253.911 413.188 228.624 434.1C222.311 438.51 216.086 443.042 209.951 447.697C201.876 432.254 193.801 416.81 185.726 401.367C179.195 394 171.961 387.62 164.024 382.23Z" fill="#FFDF01"/>
<path opacity="0.984" fill-rule="evenodd" clip-rule="evenodd" d="M404.254 559.496C398.871 559.496 393.487 559.496 388.104 559.496C369.31 556.432 351.477 550.221 334.607 540.863C314.64 529.566 296.134 516.304 279.092 501.079C307.065 495.412 333.644 485.843 358.832 472.374C393.947 450.429 422.714 422.061 445.134 387.266C453.964 371.991 463.048 356.883 472.387 341.942C477.655 334.655 484.553 329.788 493.079 327.338C496.089 326.836 499.117 326.668 502.164 326.834C504.948 351.353 504.779 375.861 501.659 400.36C496.913 422.661 491.53 444.819 485.509 466.834C479.768 492.389 468.665 515.219 452.2 535.324C438.674 548.367 422.692 556.424 404.254 559.496Z" fill="#FFDF01"/>
<path opacity="0.954" fill-rule="evenodd" clip-rule="evenodd" d="M260.923 499.064C274.604 516.911 290.754 532.187 309.373 544.892C276.55 547.124 245.932 540.073 217.52 523.741C206.247 516.942 195.143 509.892 184.211 502.59C199.001 503.037 213.806 503.037 228.623 502.59C239.617 502.132 250.384 500.957 260.923 499.064Z" fill="#FFDF01"/>
</g>
<defs>
<clipPath id="clip0_461_1177">
<rect width="646" height="560" fill="white"/>
</clipPath>
</defs>
</svg>
